<?xml version="1.0" encoding="utf-8"?>
<!-- Generator: Adobe Illustrator 22.1.0, SVG Export Plug-In . SVG Version: 6.00 Build 0)  -->
<svg version="1.1" id="Layer_1" xmlns="http://www.w3.org/2000/svg" xmlns:xlink="http://www.w3.org/1999/xlink" x="0px" y="0px"
	 width="127px" height="46.5px" viewBox="0 0 127 46.5" style="enable-background:new 0 0 127 46.5;" xml:space="preserve">
<style type="text/css">
	.st0{fill:#484848;}
</style>
<g>
	<path class="st0" d="M2.5,17.3h17.3V20h-14v9.2h12.4v2.6H5.8v11.9H2.5V17.3z"/>
	<path class="st0" d="M21,43.7h-3.5l10-26.4h3.9l10,26.4H38l-2.8-7.3H23.8L21,43.7z M24.4,33.8h10.3l-5.2-13.6L24.4,33.8z"/>
	<path class="st0" d="M59.9,42.3c-1.7,1.3-4.2,1.9-7.6,1.9c-3.3,0-5.9-0.4-8-1.2v-3c2.4,0.9,5,1.4,7.7,1.4c2.4,0,4.2-0.3,5.4-1
		c1.1-0.7,1.7-1.8,1.7-3.4c0-1-0.2-1.8-0.7-2.4c-0.5-0.6-1.2-1.1-2.3-1.6c-1-0.4-2.5-0.9-4.5-1.3c-2.9-0.7-4.9-1.6-6.1-2.7
		c-1.2-1.1-1.8-2.7-1.8-4.6c0-2.3,0.8-4.1,2.5-5.4s4.1-1.9,7.3-1.9c1.4,0,2.8,0.1,4.1,0.3c1.3,0.2,2.4,0.4,3.2,0.7v3
		C58.7,20.4,56.5,20,54,20c-2.3,0-4.1,0.3-5.2,1c-1.2,0.7-1.7,1.8-1.7,3.4c0,0.9,0.2,1.6,0.6,2.2c0.4,0.5,1.1,1,2.1,1.4
		s2.4,0.8,4.3,1.3c3.1,0.7,5.2,1.7,6.5,3c1.2,1.2,1.8,2.8,1.8,4.8C62.5,39.2,61.6,41,59.9,42.3z"/>
	<path class="st0" d="M70.7,22.6v21.2h-3.3V17.3H71l8.9,18.3l8.9-18.3h3.6v26.4h-3.3V22.6L81,39.2h-2.3L70.7,22.6z"/>
	<path class="st0" d="M99.9,43.7h-3.5l10-26.4h3.9l10,26.4h-3.4l-2.8-7.3h-11.5L99.9,43.7z M103.2,33.8h10.3l-5.2-13.6L103.2,33.8z"
		/>
</g>
</svg>
