<?xml version="1.0" encoding="utf-8"?>
<!-- Generator: Adobe Illustrator 22.1.0, SVG Export Plug-In . SVG Version: 6.00 Build 0)  -->
<svg version="1.1" id="Layer_1" xmlns="http://www.w3.org/2000/svg" xmlns:xlink="http://www.w3.org/1999/xlink" x="0px" y="0px"
	 width="47.4px" height="40.8px" viewBox="0 0 47.4 40.8" style="enable-background:new 0 0 47.4 40.8;" xml:space="preserve">
<style type="text/css">
	.st0{fill:none;}
	.st1{fill:#484848;}
	.st2{clip-path:url(#SVGID_2_);fill:#484848;}
	.st3{clip-path:url(#SVGID_4_);fill:#484848;}
	.st4{clip-path:url(#SVGID_6_);fill:#484848;}
	.st5{clip-path:url(#SVGID_8_);fill:#484848;}
	.st6{clip-path:url(#SVGID_10_);fill:#484848;}
	.st7{clip-path:url(#SVGID_12_);fill:#484848;}
	.st8{clip-path:url(#SVGID_14_);fill:#484848;}
	.st9{clip-path:url(#SVGID_16_);fill:#484848;}
	.st10{clip-path:url(#SVGID_18_);fill:#484848;}
	.st11{clip-path:url(#SVGID_20_);fill:#484848;}
	.st12{clip-path:url(#SVGID_22_);fill:#484848;}
	.st13{clip-path:url(#SVGID_24_);fill:#484848;}
</style>
<g>
	<rect class="st0" width="47.4" height="40.8"/>
	<path class="st1" d="M0.4,0.4h18.9v39.9H0.4V0.4z M19.8,0.4H47v39.9H19.8V0.4z M0,40.8h47.4V0H0V40.8z"/>
	<g>
		<defs>
			<rect id="SVGID_1_" width="47.4" height="40.8"/>
		</defs>
		<clipPath id="SVGID_2_">
			<use xlink:href="#SVGID_1_"  style="overflow:visible;"/>
		</clipPath>
		<path class="st2" d="M11.5,8v0.6C11.6,8.4,11.5,8.2,11.5,8"/>
		<path class="st2" d="M12.9,4.3c0,0.1-0.1,0.1-0.1,0.1C12.7,4.4,12.8,4.2,12.9,4.3 M13.3,4.3c0.1,0,0.1-0.2,0.2-0.1
			c0,0,0.1,0.1,0.1,0.1c0.1,0,0.1,0.1,0.1,0.1c0,0.1,0,0.2-0.1,0.1C13.6,4.4,13.6,4.2,13.3,4.3c0,0.1-0.1,0.1-0.1,0.1
			C13.2,4.3,13.3,4.3,13.3,4.3 M13.3,4.4c0,0,0.1,0.2,0.2,0.1C13.5,4.6,13.3,4.5,13.3,4.4 M12.8,4.6C12.8,4.6,12.8,4.5,12.8,4.6
			c0.2-0.1,0.3,0,0.3,0c0,0.1-0.1,0.3,0.2,0.3c0,0,0,0,0,0.1h0c0,0,0,0.1,0,0.1c0,0,0,0,0.1,0c0.4,0,0.6,0,0.7-0.1
			C14,5,14,5,14.1,4.9c0.1-0.2,0.1-0.3,0.1-0.5h0c0,0,0,0,0,0c0,0,0,0,0,0C14,4.2,13.8,4.1,13.5,4c0,0,0,0-0.1,0c0,0,0,0,0,0
			c0,0,0,0,0,0l0,0h0c0,0,0.1,0,0.1,0c0.2,0,0.5,0.2,0.6,0.4c0.1,0,0.1-0.1,0.1-0.2c0,0,0-0.1,0-0.2c0,0,0-0.1,0-0.1
			c0,0-0.1,0-0.1,0c0,0.1-0.2,0-0.1-0.1c0,0,0-0.1,0-0.1c0,0-0.1,0-0.1,0c0,0.1-0.2,0-0.1,0c0,0,0-0.1,0-0.1c0,0-0.1,0-0.1,0
			c0,0.1-0.2,0-0.1-0.1c0,0,0-0.1,0-0.1c0,0-0.1,0-0.1,0c0,0.1-0.1,0.1-0.1,0.1c0.2,0,0.4,0.2,0.6,0.3c0,0,0.1,0.1,0.1,0.1
			c0,0,0,0,0,0l0,0c0,0,0,0,0,0c0,0,0,0,0,0c0,0,0,0-0.1-0.1c-0.2-0.2-0.5-0.3-0.6-0.3c-0.1,0-0.1,0.1-0.1,0.2C13.1,3.9,13,4,13,4.2
			c0,0,0,0.1,0,0.2c0,0,0,0,0,0c0,0,0,0-0.1-0.1c0,0,0-0.1,0-0.1c-0.2,0-0.3,0.1-0.3,0.2C12.6,4.5,12.7,4.6,12.8,4.6"/>
		<path class="st2" d="M17.2,11.1c-0.1-0.1-0.4-0.1-0.4-0.1c0.2-0.4-0.3-0.6-0.3-0.6c-0.2,0-0.3,0-0.3,0c0,0,0,0,0,0c0,0,0,0,0,0
			c0,0,0,0,0,0c0,0-0.1,0.1-0.1,0.2c0,0.1,0.1,0.2,0.2,0.2c0,0,0.1,0,0.1,0c0,0,0.1-0.1,0.1-0.1c0.1,0,0.1,0.1,0.1,0.1
			c0.1,0.4-0.3,0.5-0.3,0.5c-1,0.3-1.6-0.2-1.6-0.2l0.2-0.1c0.1,0,0.1,0,0.2,0c0,0,0,0,0,0c0,0.1,0.1,0.2,0.2,0.2
			c0.1,0,0.2-0.1,0.2-0.2c0,0,0-0.1,0-0.1l0,0c0,0,0,0,0,0c-0.1-0.2-0.5-0.1-0.5-0.1c0.1-0.3,0-0.5,0-0.5c-0.1-0.1-0.1-0.2-0.1-0.2
			c0-0.1,0-0.1,0-0.1c-0.1-0.1-0.2,0-0.2,0c-0.2,0-0.2,0-0.2,0c-0.1-0.1-0.2,0-0.2,0c-0.1,0,0,0.1,0,0.1c-0.1,0-0.2,0.2-0.2,0.2
			c-0.1,0.3,0.2,0.3,0.2,0.3c0.2,0,0.2-0.1,0.2-0.1c0-0.1-0.2-0.1-0.2-0.1c0-0.1,0.1-0.1,0.1-0.1c0.2,0,0.3,0.2,0.3,0.2
			c0.2,0.3-0.1,0.5-0.1,0.5c0,0-0.1,0-0.1,0c-0.1,0-0.3-0.2-0.3-0.2c0,0,0,0,0,0h-0.1c-0.1,0-0.2,0-0.2,0c0.1,0.1,0.3,0.3,0.3,0.3
			c-0.2,0.1-0.3,0-0.3,0c-0.1-0.1-0.1-0.3-0.1-0.3c0,0,0,0,0,0c-0.1,0-0.2,0.1-0.3,0.1c0.1,0.2,0.2,0.4,0.2,0.4
			c-0.2,0.1-0.3-0.2-0.3-0.4c0,0-0.1,0-0.1,0c0,0,0,0.1,0,0.1c0,0.2,0.2,0.4,0.2,0.4c-0.2,0-0.3,0.1-0.3,0.1
			c-0.1,0.1-0.1,0.2-0.1,0.2c0,0.1,0.1,0.1,0.1,0.1c0.1,0,0.1-0.1,0.1-0.1c0-0.1,0-0.1-0.1-0.1c0.1-0.1,0.2,0,0.2,0
			c0.2,0.2-0.1,0.3-0.1,0.3C13.2,12,13,11.7,13,11.7c0.2-0.4,0.2-0.6,0.2-0.8c-0.1,0-0.1,0-0.2,0.1c0.1,0.3-0.1,0.5-0.1,0.5
			c-0.1,0-0.1-0.2-0.1-0.2c0-0.1,0-0.1-0.1-0.2c-0.1,0-0.1,0-0.2,0c0.1,0.2,0.1,0.5,0.1,0.5c0,0-0.2,0.1-0.2,0.1
			c-0.2,0-0.1-0.1-0.1-0.1c0.1-0.1,0.1-0.1,0.1-0.1c0-0.1-0.2,0-0.2,0c-0.2,0.1-0.2,0.3-0.2,0.3c0,0.1,0.3,0.2,0.3,0.2
			C12.3,12,12,12,12,12c0-0.1-0.1-0.1-0.1-0.1c0,0,0,0,0,0c-0.1,0-0.1,0-0.2,0.1c0,0,0,0,0,0l-0.1,0c-0.1,0-0.2-0.3-0.2-0.5
			c0,0-0.1,0-0.1,0c0,0.3,0.1,0.5,0.1,0.5c-0.1,0-0.3-0.1-0.3-0.1c-0.3-0.2-0.5-0.1-0.5-0.1c-0.1,0-0.2,0.1-0.2,0.3
			c0,0.2,0.1,0.3,0.3,0.3c0.2,0,0.3-0.1,0.3-0.3c0.1,0,0.2,0.1,0.2,0.1c0.3,0.2,0.5,0.2,0.6,0.2c0,0.1,0.1,0.2,0.2,0.2
			c0.1,0,0.1,0,0.2-0.1c0.6,0,0.8-0.2,0.8-0.2c0.1-0.1,0.1,0,0.1,0c0.2,0.3,0.6,0.1,0.6,0.1c0.1,0,0.1,0,0.1,0
			c0.1,0.1,0.2,0.1,0.2,0.1c0.2-0.1,0.1-0.2,0.1-0.2c-0.1-0.1,0,0,0,0c0.2,0,0.2-0.1,0.2-0.1c0-0.1-0.1-0.1-0.1-0.1c0,0,0-0.1,0-0.1
			c0.1-0.1,0.1-0.1,0.1-0.1c0.1,0,0.1-0.1,0.1-0.1c0-0.1-0.2-0.1-0.2-0.1c-0.1,0-0.1-0.1-0.1-0.1c0.2,0,0.5-0.1,0.5-0.1
			c0.4,0.3,1.1,0.4,1.1,0.4c0,0.1,0,0.1,0,0.2c0,0,0,0,0,0c-0.1,0-0.1,0-0.1,0.1c0,0.1,0,0.1,0.1,0.1c0,0,0,0,0,0
			c0.2-0.1,0.2-0.3,0.2-0.3c0.6,0.1,1-0.4,1-0.4c0.1,0,0.1,0,0.1,0c0,0,0,0,0,0c0,0,0.1,0.1,0.1,0.1c0.1,0,0.1,0,0.1-0.1
			c0,0,0-0.1,0-0.1v0v0C17.2,11.1,17.2,11.1,17.2,11.1"/>
		<path class="st2" d="M9.9,11.8C10,11.8,10,11.7,9.9,11.8c0.1-0.2,0-0.3,0-0.3c-0.1,0-0.1,0-0.2,0h0c-0.1,0-0.1,0-0.2,0
			c0,0-0.1,0.1-0.1,0.2c0,0,0,0.1,0.1,0.1c0,0-0.2,0.1-0.2,0.2c0,0,0,0.1,0.1,0.2c0,0,0.1,0.1,0.1,0.2c0,0,0,0.1,0.2,0.1
			c0.2,0,0.2-0.1,0.2-0.1c0-0.1,0.1-0.2,0.1-0.2c0.1-0.1,0.1-0.2,0.1-0.2C10.1,11.9,9.9,11.8,9.9,11.8"/>
	</g>
	<polygon class="st1" points="11.1,11.2 11.1,11.2 11.1,11.1 	"/>
	<polygon class="st1" points="8.4,11.2 8.5,11.2 8.5,11.1 	"/>
	<g>
		<defs>
			<rect id="SVGID_3_" width="47.4" height="40.8"/>
		</defs>
		<clipPath id="SVGID_4_">
			<use xlink:href="#SVGID_3_"  style="overflow:visible;"/>
		</clipPath>
		<path class="st3" d="M8.1,11C8.1,11,8.1,11,8.1,11l0,0.1c0,0,0,0,0.1,0C8.1,11.1,8.1,11.1,8.1,11C8.2,11.1,8.2,11.1,8.1,11
			C8.2,11,8.2,11,8.1,11C8.1,11,8.1,11,8.1,11"/>
		<path class="st3" d="M9.2,11.1C9.2,11.1,9.2,11.1,9.2,11.1c-0.1,0-0.1,0.1-0.1,0.1c0,0,0,0.1,0,0.1c0,0,0,0,0.1,0c0,0,0.1,0,0.1,0
			c0,0,0-0.1,0-0.1C9.3,11.2,9.3,11.1,9.2,11.1C9.3,11.1,9.3,11.1,9.2,11.1"/>
		<path class="st3" d="M10.2,11.1C10.2,11.1,10.2,11.1,10.2,11.1c-0.1,0.1-0.1,0.1-0.1,0.1c0,0,0,0.1,0,0.1c0,0,0,0,0.1,0
			c0,0,0,0,0.1,0c0,0,0-0.1,0-0.1C10.3,11.1,10.3,11.1,10.2,11.1C10.3,11.1,10.3,11.1,10.2,11.1"/>
	</g>
	<polygon class="st1" points="7.5,11.1 7.6,11.1 7.6,11 	"/>
	<g>
		<defs>
			<rect id="SVGID_5_" width="47.4" height="40.8"/>
		</defs>
		<clipPath id="SVGID_6_">
			<use xlink:href="#SVGID_5_"  style="overflow:visible;"/>
		</clipPath>
		<path class="st4" d="M6,10.5l0,0.1l0,0c0,0,0,0,0.1,0C6,10.6,6,10.6,6,10.5C6,10.6,6,10.5,6,10.5C6,10.5,6,10.5,6,10.5
			C6,10.5,6,10.5,6,10.5"/>
		<path class="st4" d="M6.3,10.6C6.3,10.6,6.3,10.7,6.3,10.6c-0.1,0.1-0.1,0.2-0.1,0.2c0,0,0,0,0,0c0,0,0,0,0.1,0c0,0,0,0,0.1-0.1
			c0,0,0-0.1,0-0.1C6.4,10.6,6.4,10.6,6.3,10.6C6.3,10.6,6.3,10.6,6.3,10.6"/>
		<path class="st4" d="M6.7,10.7C6.7,10.7,6.7,10.7,6.7,10.7l0,0.1c0,0,0,0,0.1,0c0,0,0,0,0,0C6.8,10.8,6.8,10.8,6.7,10.7
			C6.8,10.8,6.8,10.8,6.7,10.7C6.8,10.7,6.8,10.7,6.7,10.7"/>
		<path class="st4" d="M12.7,10.7C12.7,10.7,12.7,10.7,12.7,10.7C12.6,10.7,12.6,10.7,12.7,10.7l0,0.1
			C12.7,10.8,12.7,10.8,12.7,10.7C12.7,10.8,12.7,10.8,12.7,10.7C12.7,10.8,12.7,10.8,12.7,10.7C12.7,10.7,12.7,10.7,12.7,10.7"/>
	</g>
	<polygon class="st1" points="13.4,10.7 13.4,10.7 13.4,10.6 	"/>
	<g>
		<defs>
			<rect id="SVGID_7_" width="47.4" height="40.8"/>
		</defs>
		<clipPath id="SVGID_8_">
			<use xlink:href="#SVGID_7_"  style="overflow:visible;"/>
		</clipPath>
		<path class="st5" d="M13.5,10.8L13.5,10.8C13.5,10.7,13.5,10.7,13.5,10.8C13.5,10.7,13.5,10.7,13.5,10.8
			C13.5,10.7,13.5,10.7,13.5,10.8L13.5,10.8L13.5,10.8l-0.1-0.1l0,0c0,0,0,0,0,0C13.4,10.8,13.4,10.8,13.5,10.8
			C13.4,10.8,13.4,10.8,13.5,10.8L13.5,10.8l-0.2,0.1l0,0c0,0,0,0,0-0.1l0-0.3l0,0l0.2,0.2c0,0,0,0,0,0c0,0,0,0,0,0l0,0L13.5,10.8z
			 M13,10.9L13,10.9l0.1-0.3l-0.1,0c0,0-0.1,0-0.1,0c0,0,0,0,0,0.1l0,0l0-0.1l0.3-0.1l0,0L13,10.9l0.2-0.1c0,0,0,0,0,0c0,0,0,0,0,0
			c0,0,0,0,0,0l0,0l0,0.1L13,10.9z M12.8,11C12.8,11,12.8,10.9,12.8,11c-0.1-0.1-0.1-0.1-0.1-0.1c0,0,0,0,0,0c0,0,0,0,0,0l0,0.1
			c0,0,0,0,0,0C12.7,11,12.7,11,12.8,11L12.8,11L12.8,11L12.6,11l0,0h0c0,0,0,0,0,0c0,0,0,0,0,0l-0.1-0.2c0,0,0,0,0,0c0,0,0,0,0,0h0
			l0,0l0.1,0l0,0c0,0,0,0,0.1,0c0,0,0,0,0,0c0,0,0,0,0,0c0,0,0,0,0,0c0,0,0,0.1,0,0.1C12.8,10.8,12.8,10.8,12.8,11
			C12.9,10.9,12.9,10.9,12.8,11C12.9,10.9,12.9,10.9,12.8,11L12.8,11L12.8,11z M12.2,11.1L12.2,11.1L12.2,11.1
			C12.3,11.1,12.3,11.1,12.2,11.1C12.3,11.1,12.3,11.1,12.2,11.1l0-0.2c0,0,0,0,0,0c0,0,0,0,0,0h0l0,0l0.3-0.1l0,0.1l0,0
			c0,0,0,0,0,0c0,0,0,0,0,0c0,0,0,0,0,0l-0.1,0l0,0.1l0,0c0,0,0,0,0,0c0,0,0,0,0,0l0,0l0,0.1l0,0c0,0,0,0,0,0c0,0,0,0,0,0
			c0,0,0,0,0,0l0,0l0,0.1c0,0,0,0,0,0c0,0,0,0,0,0c0,0,0,0,0,0c0,0,0,0,0,0c0,0,0,0,0,0c0,0,0,0,0,0l0,0l0,0.1L12.2,11.1z
			 M12.1,10.9l0,0.1c0,0,0,0,0,0.1c0,0,0,0,0,0c0,0,0,0,0,0c0,0,0,0-0.1,0c0,0,0,0-0.1,0c0,0,0,0-0.1,0c0,0,0,0,0,0c0,0,0,0,0,0
			l0-0.1c0,0,0,0,0,0c0,0,0,0,0,0l0,0l0.2,0l0,0l0,0c0,0,0,0,0,0c0,0,0,0,0,0l0,0.1c0,0,0,0,0,0.1c0,0,0,0,0,0c0,0,0,0,0,0
			c0,0,0,0,0,0c0,0,0,0,0,0c0,0,0,0,0-0.1L12.1,10.9C12.1,10.9,12,10.9,12.1,10.9L12.1,10.9L12.1,10.9L12.1,10.9
			C12.1,10.8,12.1,10.8,12.1,10.9C12.1,10.9,12.1,10.9,12.1,10.9C12.1,10.9,12.1,10.9,12.1,10.9 M11.7,11C11.7,11,11.7,11,11.7,11
			C11.7,10.9,11.7,10.9,11.7,11C11.7,10.9,11.7,10.9,11.7,11l-0.1,0l0,0.1L11.7,11C11.6,11,11.7,11,11.7,11C11.7,11,11.7,11,11.7,11
			L11.7,11l0,0.1l0,0C11.7,11.1,11.7,11.1,11.7,11C11.7,11.1,11.6,11.1,11.7,11l-0.1,0.1l0,0.1c0,0,0,0,0,0c0,0,0,0,0,0l0,0l0,0
			l-0.2,0l0,0h0c0,0,0,0,0,0c0,0,0,0,0,0l0-0.2c0,0,0,0,0,0c0,0,0,0,0,0l0,0l0,0L11.7,11L11.7,11L11.7,11z M11.2,11.3L11.2,11.3
			C11.2,11.3,11.2,11.3,11.2,11.3C11.2,11.2,11.2,11.2,11.2,11.3C11.2,11.2,11.2,11.2,11.2,11.3L11.2,11.3L11.2,11.3L11.2,11.3
			L11.2,11.3c-0.1,0-0.1,0-0.1,0C11.1,11.3,11.1,11.3,11.2,11.3C11.1,11.3,11.1,11.3,11.2,11.3L11.2,11.3l-0.2,0l0,0c0,0,0,0,0-0.1
			l0.1-0.2l0,0l0.1,0.2c0,0,0,0,0,0c0,0,0,0,0,0l0,0L11.2,11.3z M10.7,11.3L10.7,11.3L10.7,11.3C10.7,11.3,10.7,11.3,10.7,11.3
			C10.7,11.3,10.7,11.3,10.7,11.3l0-0.2c0,0,0,0,0,0c0,0,0,0,0,0l0,0l0,0l0.2,0l0,0h0c0,0,0,0,0,0c0,0,0,0,0,0l0,0.2c0,0,0,0,0,0
			c0,0,0,0,0,0c0,0,0,0,0,0c0,0,0,0,0.1,0c0,0,0,0,0-0.1l0,0l0,0.1L10.7,11.3z M10.4,11.3c0,0-0.1,0-0.1,0.1c0,0-0.1,0-0.1,0
			c0,0-0.1,0-0.1-0.1c0,0,0-0.1,0-0.1c0,0,0-0.1,0-0.1c0,0,0,0,0.1-0.1c0,0,0.1,0,0.1,0c0.1,0,0.1,0,0.1,0c0,0,0.1,0.1,0.1,0.1
			C10.4,11.2,10.4,11.3,10.4,11.3 M9.8,11.1C9.8,11.1,9.8,11.1,9.8,11.1C9.8,11.1,9.8,11.1,9.8,11.1C9.8,11.1,9.8,11.1,9.8,11.1
			l0,0.3h0l-0.2-0.2v0.1c0,0,0,0,0,0c0,0,0,0,0,0v0H9.5v0c0,0,0,0,0,0c0,0,0,0,0,0c0,0,0,0,0,0v-0.2c0,0,0,0,0,0v0l0.1,0l0.2,0.2
			L9.8,11.1c-0.1,0-0.1,0-0.1,0v0L9.8,11.1L9.8,11.1z M9.4,11.3c0,0-0.1,0-0.1,0c0,0-0.1,0-0.1,0c0,0,0,0-0.1-0.1c0,0,0-0.1,0-0.1
			c0,0,0-0.1,0-0.1c0,0,0,0,0.1-0.1c0,0,0.1,0,0.1,0c0.1,0,0.1,0,0.1,0.1c0,0,0,0.1,0,0.1C9.4,11.2,9.4,11.3,9.4,11.3 M9,11
			l-0.2,0.2l0.1,0c0,0,0,0,0,0c0,0,0,0,0,0c0,0,0,0,0,0l0,0l0,0.1l-0.3,0v0L8.9,11l-0.1,0c0,0-0.1,0-0.1,0c0,0,0,0,0,0l0,0l0-0.1
			L9,11L9,11z M8.6,11.3l-0.2,0l0,0c0,0,0,0,0,0c0,0,0,0,0,0c0,0,0,0,0,0l0,0l0,0l-0.1,0l0,0c0,0,0,0,0,0c0,0,0,0,0,0c0,0,0,0,0,0
			l0,0l-0.1,0l0,0c0,0,0,0,0.1,0L8.5,11l0,0L8.6,11.3C8.6,11.3,8.6,11.3,8.6,11.3C8.6,11.3,8.6,11.3,8.6,11.3L8.6,11.3z M8.3,11.3
			l-0.1,0c0,0,0,0,0-0.1c0,0,0,0,0,0c0,0,0,0,0,0c0,0,0,0,0,0l0,0.1c0,0,0,0,0,0c0,0,0,0,0,0h0l0,0l-0.2,0l0,0l0,0c0,0,0,0,0,0
			c0,0,0,0,0,0L8,11c0,0,0,0,0,0c0,0,0,0,0,0h0l0,0l0.1,0l0,0c0,0,0,0,0.1,0c0,0,0,0,0,0c0,0,0,0,0,0c0,0,0,0,0,0c0,0,0,0.1-0.1,0.1
			C8.2,11.1,8.2,11.1,8.3,11.3C8.2,11.2,8.2,11.2,8.3,11.3C8.3,11.2,8.3,11.3,8.3,11.3L8.3,11.3z M7.7,11.2l-0.2,0l0,0c0,0,0,0,0,0
			c0,0,0,0,0,0c0,0,0,0,0,0l0,0l0,0l-0.1,0l0,0c0,0,0,0,0,0c0,0,0,0,0,0c0,0,0,0,0,0l0,0l-0.1,0l0,0c0,0,0,0,0.1,0l0.1-0.2l0,0
			L7.7,11.2C7.7,11.1,7.7,11.2,7.7,11.2C7.7,11.2,7.7,11.2,7.7,11.2L7.7,11.2z M7.4,11.1l-0.3-0.1l0,0h0c0,0,0,0,0,0c0,0,0,0,0,0
			l0-0.2c0,0,0,0,0,0c0,0,0,0,0,0h0l0,0l0.2,0l0,0l0,0c0,0,0,0,0,0c0,0,0,0,0,0l0,0.2c0,0,0,0,0,0c0,0,0,0,0,0c0,0,0,0,0,0
			C7.3,11.1,7.3,11.1,7.4,11.1c0-0.1,0-0.1,0-0.1l0,0L7.4,11.1z M6.8,10.9C6.8,11,6.9,11,6.8,10.9C6.9,11,6.9,11,6.8,10.9L6.8,10.9
			L6.8,10.9C6.8,11,6.8,11,6.8,10.9C6.7,10.9,6.7,10.9,6.8,10.9c-0.1-0.1-0.1-0.1-0.1-0.1c0,0,0,0,0,0l0,0.1c0,0,0,0,0,0
			c0,0,0,0,0,0l0,0l0,0l-0.2,0l0,0l0,0c0,0,0,0,0,0c0,0,0,0,0,0l0-0.2c0,0,0,0,0,0c0,0,0,0,0,0l0,0l0,0l0.1,0l0,0c0,0,0,0,0.1,0
			c0,0,0,0,0,0c0,0,0,0,0,0c0,0,0,0,0,0C6.9,10.8,6.8,10.9,6.8,10.9C6.8,10.9,6.8,10.9,6.8,10.9 M6.5,10.8
			C6.5,10.8,6.5,10.9,6.5,10.8c-0.1,0.1-0.2,0.1-0.2,0.1c0,0-0.1,0-0.1,0c0,0,0-0.1,0-0.1c0,0,0-0.1,0-0.1c0,0,0,0,0-0.1
			c0,0,0.1,0,0.1,0c0,0,0.1,0,0.1,0c0.1,0,0.1,0,0.1,0.1C6.5,10.7,6.5,10.7,6.5,10.8 M6.1,10.6C6.1,10.6,6.1,10.6,6.1,10.6
			C6.1,10.7,6.1,10.7,6.1,10.6c-0.1,0.1-0.1,0-0.2,0l0,0l0,0.1c0,0,0,0,0,0c0,0,0,0,0,0l0,0l0,0l-0.2-0.1l0,0l0,0c0,0,0,0,0,0
			c0,0,0,0,0,0l0.1-0.2c0,0,0,0,0,0c0,0,0,0,0,0l0,0l0,0l0.1,0c0,0,0.1,0,0.1,0C6.1,10.5,6.1,10.5,6.1,10.6
			C6.1,10.5,6.1,10.5,6.1,10.6C6.1,10.6,6.1,10.6,6.1,10.6 M9.2,10.9L9.2,10.9L9.2,10.9L9.2,10.9L9.2,10.9z M13.6,10.3
			C13.5,10.3,13.5,10.3,13.6,10.3c-0.2,0-1.6,0.6-3.9,0.6c-2.3,0-3.7-0.6-3.8-0.6c0,0,0,0-0.1,0c0,0-0.1,0-0.1,0l-0.5,0.3h0
			c0.1,0,0.3,0.1,0.3,0.1c1.2,0.5,2.6,0.7,4.2,0.7c1.6,0,3-0.2,4.2-0.7c0,0,0.2-0.1,0.3-0.1h0l-0.5-0.3
			C13.6,10.3,13.6,10.3,13.6,10.3"/>
		<path class="st5" d="M8,5.9C8,5.9,7.9,6,7.9,6h0.4C8.2,6,8.1,5.9,8,5.9"/>
		<path class="st5" d="M10.3,6c-0.1,0-0.1-0.1-0.1-0.1c0,0,0,0,0,0c-0.1,0-0.1,0-0.2-0.1H9.3c-0.1,0-0.1,0-0.2,0.1c0,0,0,0,0,0
			C9,5.9,9,6,8.9,6c0,0,0,0,0,0L10.3,6C10.3,6,10.3,6,10.3,6"/>
		<path class="st5" d="M11.3,5.9C11.3,5.9,11.3,5.9,11.3,5.9C11.3,5.9,11.3,5.9,11.3,5.9c0,0-0.1,0.1-0.2,0.1h0.3
			C11.4,6,11.3,5.9,11.3,5.9"/>
		<path class="st5" d="M7.9,8.7V8C7.8,8.1,7.7,8.4,7.9,8.7"/>
		<path class="st5" d="M9.6,6.1H7.7c0,0,0,0,0,0c0,0,0,0,0,0c0,0,0,0,0.1,0.1h1.7L9.6,6.1z"/>
		<path class="st5" d="M9.5,6.3H7.9c0,0,0.1,0.1,0.1,0.1h1.5L9.5,6.3z"/>
		<path class="st5" d="M9.4,6.7l0-0.1H8c0,0,0,0.1,0.1,0.1H9.4z"/>
		<path class="st5" d="M9.4,6.8H8.1c0,0,0,0.1,0,0.1h1.2L9.4,6.8z"/>
		<path class="st5" d="M8.1,7.4h0.7L8.6,7.3H8.1C8.1,7.3,8.1,7.4,8.1,7.4"/>
		<path class="st5" d="M8.1,7L8.1,7c0,0,0,0.1,0,0.1h0.3L8.1,7L8.1,7z"/>
		<path class="st5" d="M10.4,7.7h0.1v0.9l-0.1-0.3V7.7z M9.6,7.5l0.8,1.1v0.6c0.1,0,0.1,0,0.1,0c0,0,0,0,0,0V7.7h0.1v1.5
			c0.1,0,0.1,0,0.2,0V7.7H11v1.4c0.1,0,0.1,0,0.2-0.1V7.7h0.1V9c0.1,0,0.1-0.1,0.1-0.1c0,0,0,0,0,0v-1c0-0.1-0.1-0.2-0.1-0.2h0
			c0-0.1,0-0.1-0.1-0.1h-0.9l-0.2,0.1L9.8,7.5L9.6,7.5L11,7H9.9l0-0.1h1.2c0,0,0-0.1,0-0.1H9.9l0-0.1h1.4c0-0.1,0-0.1,0.1-0.1H9.8
			l0-0.1h1.5c0-0.1,0.1-0.1,0.1-0.1H9.7l0-0.1h1.8c0-0.1,0.1-0.1,0.1-0.1c0,0,0,0,0,0H9.6l0,0v0v0.1v0.1v0.1v0.1v0.1v0.1V7V7.5
			L9.6,7.5L9.6,7.5z"/>
		<path class="st5" d="M10,9.3c0,0,0.1-0.1,0.2-0.1V8.3L10,8.2V9.3z"/>
		<path class="st5" d="M9.7,9.6C9.7,9.6,9.8,9.5,9.7,9.6L9.7,9.6c0.1-0.1,0.1-0.2,0.1-0.2V8.2L9.7,8.1V9.6z"/>
		<path class="st5" d="M9.5,9.4c0,0,0.1,0.1,0.1,0.1l0,0c0,0,0,0,0,0V8L9.5,8.1V9.4z"/>
		<path class="st5" d="M9.2,9.2c0.1,0,0.1,0,0.2,0.1V8.2L9.2,8.3V9.2z"/>
		<path class="st5" d="M10.2,9.2c0.1,0,0.1,0,0.2,0V8.5l-0.2-0.1V9.2z"/>
		<path class="st5" d="M9,9.2c0,0,0.1,0,0.2,0V8.4L9,8.5V9.2z"/>
		<path class="st5" d="M8.9,7.7L8.9,7.7L9,8.1L8.9,8.4V7.7z M8.1,9V7.7h0.1L8.1,9C8.2,9,8.3,9.1,8.4,9.1V7.7h0.1v1.4
			c0,0,0.1,0,0.1,0V7.7h0.1v1.5c0,0,0,0,0.1,0c0,0,0,0,0.1,0V8.5L8.8,8.6l0.9-1.1v0L9.3,7H8.2l1.4,0.4L9.1,7.7L8.9,7.5H8.1
			c0,0,0,0.1-0.1,0.1c0,0,0,0.1-0.1,0.1v1.1C8,8.9,8,8.9,8.1,9"/>
		<path class="st5" d="M10.5,7.4h0.7c0-0.1,0-0.1,0-0.1h-0.5L10.5,7.4z"/>
		<path class="st5" d="M11.1,7H11l-0.2,0.1h0.3C11.1,7.1,11.1,7.1,11.1,7C11.1,7.1,11.1,7.1,11.1,7"/>
		<path class="st5" d="M7.5,3.1c0.2-0.1,0.4,0,0.5,0.1c0.3,0.3,0.2,0.8,0,0.8c0.1-0.2,0.1-0.5-0.2-0.6C7.6,3.4,7.4,3.6,7.3,3.7
			c0.1-0.2,0.3-0.4,0.6-0.3C7.9,3.2,7.6,3.2,7.3,3.3c-0.1,0-0.1,0.1-0.2,0.1C7.2,3.3,7.3,3.2,7.5,3.1 M7.5,4.2
			c0.2,0,0.3-0.1,0.3-0.3c0,0-0.1-0.1-0.1-0.1C7.5,3.8,7.5,3.9,7.4,4c0-0.1,0.1-0.2,0.3-0.2c0.1,0,0.2,0.1,0.2,0.2
			C7.9,4.1,7.7,4.2,7.5,4.2 M8.6,3.7c0.1,0.2,0.5,0.5,1,0.6c0.2,0,0.2,0.5,0.1,0.8C9.5,5,9.5,4.9,9.5,4.8c0.1,0,0.2,0.1,0.1,0
			c-0.1,0-0.4-0.1-0.3-0.3c0.1-0.1,0.2,0.2,0.3,0.1C9.7,4.5,9,4.5,9,4.3c0-0.1,0.5,0.2,0.6,0.2C9.6,4.4,8.9,4.1,8.6,3.7
			C8.6,3.7,8.6,3.7,8.6,3.7C8.6,3.7,8.6,3.7,8.6,3.7 M9.9,4.6c0,0.2,0.1,0.4,0,0.6c0,0,0-0.1,0-0.1c0-0.2,0-0.4-0.1-0.6
			c0-0.1-0.1-0.4-0.3-0.7C9.6,3.8,9.8,4.3,9.9,4.6 M10.1,3.9C10.2,4,10,4.3,10,4.3c0,0,0.1-0.1,0.2-0.1C10.3,4.3,10,4.5,10,4.6
			C9.7,4.2,10.1,4.1,10.1,3.9 M10.5,2.5c0,0.1-0.1,0.2-0.1,0.2c0,0,0,0,0,0c0-0.1,0-0.3-0.1-0.3c-0.1-0.1-0.2-0.1-0.2-0.1
			C10.2,2.2,10.5,2.3,10.5,2.5 M10,4.8c-0.1-0.1,0.1-0.2,0.1-0.3C10.3,4.4,10.1,4.8,10,4.8 M10,5c0,0,0-0.1,0-0.1
			c0-0.1,0.1-0.1,0.2-0.2C10.2,4.7,10.2,4.9,10,5 M11.9,3c0.1,0,0.2,0.1,0.3,0.2c0.1,0.1,0,0.2,0,0.3c0,0,0,0,0,0c0,0,0,0,0,0
			c0-0.1,0-0.2,0-0.3c0,0-0.1-0.1-0.1-0.2C12,3.2,12,3.2,12,3.3c0,0.1,0,0.1,0,0.1c0,0.1-0.1,0.3-0.1,0.3c0,0,0,0,0,0c0,0,0,0,0,0
			C12,3.5,12,3.4,12,3.3c0,0,0,0,0,0c-0.1-0.1-0.1-0.2-0.3-0.2c0.1,0,0.1,0.1,0.2,0.2c0.1,0.2,0.1,0.4,0,0.4c0,0,0,0,0,0
			c0,0,0,0,0,0c0,0,0,0,0-0.1c0-0.1,0-0.1,0-0.2c-0.1-0.3-0.3-0.4-0.5-0.2C11.3,3.2,11.5,2.9,11.9,3 M7.2,4.4C7.5,4.5,7.8,4.5,8,4.5
			c0.1,0,0.1,0,0.2-0.1c0,0,0,0,0,0c0,0,0,0,0,0c0.1-0.1,0.2-0.2,0.2-0.4c0,0,0,0,0,0c0,0,0,0,0,0.1c0,0.1,0,0.2,0,0.2c0,0,0,0,0,0
			c0,0,0,0.1,0,0.1c0.1,0.1,0.2,0.1,0.3,0c0,0,0,0,0,0c0,0-0.1,0.1-0.2,0.1c0,0-0.1,0-0.1,0c0.1,0.1,0.3,0.2,0.5,0.2c0,0,0,0,0,0
			c0,0,0,0-0.1,0c-0.1,0-0.2,0-0.3-0.1C8.6,4.7,8.8,4.8,9,4.9c0,0-0.2,0-0.3,0c0.1,0.5,0.4,0.4,0.4,0.5C9.1,5.3,9,5.4,9.1,5.5
			c0.3-0.1,0.5-0.1,0.6-0.1c0.1,0,0.3,0,0.6,0.1c0,0,0-0.1,0-0.1c0-0.1-0.4-0.2-0.8-0.1c0,0,0,0,0,0c0,0,0,0,0,0c0,0,0,0,0,0h0
			c0,0,0,0,0,0c0.2-0.1,0.5-0.1,0.7,0c0,0,0,0,0,0c0.2,0.1,0.3-0.1,0.2-0.2c0.1,0,0.2-0.1,0.2-0.2c0,0,0,0-0.1,0l0,0
			c0,0-0.1,0-0.1,0c0,0,0,0,0,0h0c0,0,0,0,0,0c0,0,0,0,0,0c0,0,0,0,0,0c0.2-0.1,0.3-0.3,0.3-0.4c0,0-0.1,0.1-0.2,0.1
			c0,0-0.1,0-0.1,0c0,0,0,0,0,0c0,0,0,0,0.1,0c0.1-0.1,0.1-0.1,0.2-0.2c-0.1-0.1-0.2-0.3-0.3-0.5c0-0.1-0.1-0.1-0.2-0.1c0,0,0,0,0,0
			c0,0,0,0,0,0c0,0,0,0,0,0c0.1-0.1,0.2,0,0.3,0c0-0.2,0.1-0.2,0.1-0.2c0,0,0,0,0,0c-0.1,0.4,0.1,0.7,0.3,0.8
			c0.3,0.1,0.8,0.2,1.1-0.1c-0.1,0-0.1,0-0.2,0c-0.1,0-0.1,0-0.1,0c0,0,0,0,0,0c0,0,0.1,0,0.1,0c0.5-0.1,0.5-0.7,0.4-0.7
			c0,0,0,0,0,0c0,0,0,0.1,0,0.1c0,0.1-0.1,0.1-0.1,0.1c0,0,0,0,0,0c0.1-0.2,0.1-0.3,0-0.5c0-0.1-0.1-0.2-0.2-0.2
			c-0.2-0.2-0.7-0.2-1,0c-0.1-0.1-0.2-0.1-0.3-0.2c0,0.1-0.2,0.3-0.3,0.4c0,0-0.1,0.1-0.1,0.1c0,0,0,0,0,0c0.3-0.1,0.4-0.3,0.4-0.6
			v0c0-0.1,0-0.3-0.2-0.5C10.3,2,9.7,2,9.4,2.2C9.3,2.3,9.3,2.3,9.3,2.5c0-0.1,0.1-0.2,0.2-0.2c0.1,0,0.4,0,0.4,0.1
			C9.7,2.2,9.3,2.3,9.2,2.7v0c0,0,0,0,0,0l0,0c0,0,0,0,0-0.2c0-0.1,0-0.2,0.1-0.3c-0.5-0.1-1,0.1-1,0.8c0,0.1,0,0.2,0.1,0.3
			c0,0,0,0,0,0c0,0-0.1,0-0.1-0.1c0-0.1-0.1-0.1-0.1-0.2C7.9,2.9,7.7,2.9,7.5,2.9C7.4,3,7.1,3.1,7,3.2c0,0-0.1,0.1-0.1,0.2
			C6.9,3.5,6.8,3.6,6.9,3.8C6.9,4,7,4.2,7.2,4.4"/>
		<path class="st5" d="M4.5,10.7C4.5,10.7,4.5,10.7,4.5,10.7C4.4,10.7,4.4,10.7,4.5,10.7C4.4,10.7,4.4,10.8,4.5,10.7
			C4.4,10.8,4.4,10.8,4.5,10.7L4.5,10.7c-0.1,0.1-0.1,0.1-0.1,0.1c0,0,0,0,0,0c-0.1,0-0.1-0.1-0.1-0.1c0,0,0-0.1-0.1-0.1
			C4.3,10.5,4.5,10.6,4.5,10.7C4.5,10.6,4.5,10.6,4.5,10.7C4.5,10.7,4.5,10.7,4.5,10.7C4.6,10.7,4.6,10.7,4.5,10.7
			C4.6,10.8,4.5,10.8,4.5,10.7 M5.8,5.2c0.3,0,0.5,0,0.7,0.1c0,0,0,0,0,0c0,0,0.2,0.1,0.2,0.3C6.5,5.5,6.5,5.5,6.3,5.5
			C6.1,5.4,5.9,5.4,5.8,5.2 M5.5,4.8c0.2,0.1,0.2-0.1,0.2-0.1C5.8,4.8,5.6,4.9,5.5,4.8 M5.4,4.8C5.3,4.7,5.5,4.5,5.6,4.5
			c0.1,0,0.2,0,0.4,0c0.1,0,0.2,0,0.2,0c0.2,0,0.1,0.1,0.1,0.1c-0.1,0-0.2-0.1-0.3-0.1c-0.1,0-0.2,0-0.2,0c-0.1,0-0.1,0-0.2,0
			c0,0-0.1,0.1-0.1,0.1C5.5,4.8,5.4,4.8,5.4,4.8 M7.6,6.9c-0.1,0-0.1-0.2-0.3-0.2c-0.1,0.1-0.3,0-0.4,0C7.3,6.6,7.7,6.8,7.6,6.9
			 M7.7,7.3c0,0,0.1,0.1,0.1,0.2c0,0,0,0,0,0c0,0,0,0,0,0c0,0,0,0,0,0c0,0,0,0,0,0v0c0,0,0,0,0,0c0,0,0,0,0,0c0,0,0,0,0,0
			c0,0,0,0,0,0c0,0,0,0,0,0c0,0,0,0,0,0c0,0,0,0,0,0c0,0,0,0,0,0c0,0,0,0,0,0c0,0,0,0,0,0c0,0,0,0,0,0c0,0,0,0,0,0c0,0,0,0,0,0
			c0,0,0,0,0,0c0,0,0,0,0,0c0,0,0,0,0,0c0,0,0,0,0,0c0,0,0,0,0,0c0,0,0,0,0,0c0,0,0,0,0,0c0,0,0,0,0,0c0,0,0,0,0,0c0,0,0,0,0,0
			c0,0,0,0,0,0c0,0,0,0,0,0c0,0,0,0,0,0c0,0,0,0,0,0c0,0,0-0.1,0.1-0.1c0,0,0-0.1,0-0.1c0,0,0.1,0,0.1,0c-0.1-0.1-0.1-0.1,0-0.2
			C7.8,7.6,7.7,7.3,7.7,7.3 M7.8,7.9c0.3-0.4,0.2-0.7,0.2-0.8c0-0.5-0.3-0.8-0.3-0.9c0,0,0-0.1,0-0.1c0,0,0-0.1,0.1-0.1
			C7.8,6,8,5.9,8,5.8l0,0c0,0,0,0,0,0c0,0,0,0,0.1,0C8.2,5.9,8.3,6,8.5,6c0,0,0.1,0,0.1,0c0.1,0,0.3-0.1,0.3-0.1
			C9,5.9,9,5.8,9.1,5.8l0,0c0.3-0.1,0.5-0.1,0.6-0.1c0.1,0,0.3,0,0.6,0.1l0,0c0,0,0.1,0,0.2,0.1c0,0,0.2,0.1,0.3,0.1
			c0,0,0.1,0,0.1,0c0.2,0,0.3-0.1,0.4-0.1c0,0,0,0,0.1,0c0,0,0,0,0,0c0,0,0,0,0,0c0.1,0,0.2,0.1,0.3,0.2c0,0,0,0,0,0.1
			c0,0,0,0.1,0,0.1c0,0-0.4,0.4-0.4,0.9c0,0.1,0,0.4,0.2,0.8c0,0,0.3,0.5,0,1c0,0-0.3,0.4-0.9,0.4c-0.1,0-0.6,0-0.8,0.3c0,0,0,0,0,0
			c0,0-0.1,0.1-0.1,0.2c0,0,0,0,0,0c0,0,0,0,0,0c0-0.1-0.1-0.2-0.1-0.2c0,0,0,0,0,0C9.3,9.2,8.8,9.2,8.8,9.2c-0.6,0-0.9-0.4-0.9-0.4
			C7.5,8.4,7.8,7.9,7.8,7.9 M11.6,7.5C11.6,7.5,11.6,7.5,11.6,7.5c0,0,0.1,0,0.1,0c0,0,0,0,0.1,0h0c0,0,0,0,0.1,0
			c0,0,0.1,0.1,0.1,0.1c0,0,0,0.1,0.1,0.2c0,0,0,0.1-0.1,0.1h0c-0.1,0-0.2-0.2-0.2-0.3C11.7,7.6,11.7,7.6,11.6,7.5L11.6,7.5
			C11.6,7.6,11.6,7.6,11.6,7.5C11.6,7.6,11.6,7.6,11.6,7.5C11.6,7.6,11.6,7.6,11.6,7.5C11.6,7.6,11.6,7.6,11.6,7.5
			c0,0.1,0,0.1-0.1,0.1C11.5,7.6,11.5,7.6,11.6,7.5 M12,8C12,8,12,8,12,8C12,8,12,8,12,8C12,8,12,8,12,8C12,8,12,8,12,8
			C12,8,12,8,12,8L12,8c0,0.1,0,0.1,0,0.2c0,0,0,0,0,0c0,0,0,0.1,0,0.1c0,0.1,0,0.1,0,0.2c0,0,0,0,0,0c0,0,0,0,0,0c0,0,0,0,0,0
			c0,0,0,0,0,0c0,0,0,0,0,0c0,0,0,0,0,0c0,0,0,0,0,0c0,0,0,0,0,0h0c0,0,0,0,0,0c0,0,0,0,0,0c0,0,0,0,0,0c0,0,0,0,0,0c0,0,0,0,0,0
			c0,0,0,0,0,0c0,0,0-0.1,0-0.1c0,0,0,0,0,0c0,0,0,0,0,0c0,0,0,0,0,0c0,0,0,0,0,0c0,0,0,0,0,0c0,0,0,0,0,0c0,0,0,0,0,0c0,0,0,0,0,0
			c0,0,0,0,0,0c0,0,0,0,0,0c0,0,0,0,0,0c0,0,0,0,0,0c0,0,0,0,0,0c0,0,0,0,0,0c0,0,0,0,0,0C11.9,8.2,11.9,8,12,8C11.9,8,11.9,8,12,8
			C11.9,8,11.9,8,12,8C11.9,8,11.9,8,12,8L12,8C12,8,12,8,12,8C12,8,12,8,12,8 M12.8,8.6c0.2,0.1,0.4,0,0.5-0.1c0,0,0,0,0,0
			c0,0,0,0.1-0.2,0.2c-0.3,0-0.6-0.3-0.5-0.3C12.6,8.4,12.7,8.5,12.8,8.6 M12.5,5.7c0,0.1-0.1,0.2-0.2,0.2c-0.2,0-0.4-0.1-0.4-0.1
			c0,0,0.2,0.1,0.3,0.1C12.4,5.8,12.5,5.8,12.5,5.7C12.5,5.7,12.5,5.7,12.5,5.7 M11.8,4.8C11.8,4.8,11.8,4.8,11.8,4.8
			c-0.1-0.1-0.3,0-0.5,0C11.2,4.9,11.1,5,11.1,5c0,0,0.2-0.3,0.5-0.3C11.8,4.7,11.8,4.8,11.8,4.8 M14.2,5.8c0,0,0.1,0,0.1,0
			c0,0,0.1-0.1,0.1-0.1c0,0,0,0,0,0C14.4,5.8,14.3,5.8,14.2,5.8c-0.1,0.1-0.3,0.1-0.3,0C14,5.7,14.1,5.8,14.2,5.8 M14.6,5.3
			c0-0.1,0.2-0.3,0.2-0.3c0-0.1-0.1-0.1-0.1-0.2c0-0.1,0.1-0.3,0.3-0.3c0.1,0,0.2,0.1,0.2,0.2c0,0,0.1,0,0.1,0.1
			c0.2,0.2,0.3,0.6,0.4,0.9c0.3,0.9,0.4,2.3,0.1,3.8c0,0.1-0.1,0.5-0.1,0.4c0.3-2.5,0.1-3.1,0.1-3.1c0,0-0.1,0.3-0.2,0.2
			c-0.1-0.1,0.3-0.6,0.1-0.9c0,0-0.1,0.1-0.2,0c-0.2-0.1,0.1-0.5,0-0.6c0,0-0.2-0.1-0.2-0.2c0-0.1,0.1-0.1,0-0.2c-0.1-0.1,0,0-0.1,0
			c-0.1-0.1,0-0.2-0.1-0.3c0,0-0.1,0.1-0.1,0c-0.1,0,0-0.1,0-0.2c-0.1,0-0.2,0.1-0.2,0.2c0,0.1,0.1,0.1,0.1,0.2
			c0,0.1-0.1,0.1-0.1,0.2c-0.1,0.3,0.1,0.3,0.1,0.4c0,0-0.1,0.1-0.2,0C14.6,5.6,14.6,5.4,14.6,5.3 M13,9.9L13,9.9
			C13,9.9,13,9.9,13,9.9c-0.1,0-0.2-0.1-0.2-0.1c0,0-0.1-0.1-0.2,0h0h0c-0.1,0-0.1,0.1-0.1,0.1c0,0,0,0,0,0c0,0,0,0,0,0c0,0,0,0,0,0
			v0c0,0,0,0,0,0c0,0,0,0,0,0c0,0,0,0,0,0c0,0,0,0,0,0c0,0,0,0,0,0c0,0,0,0,0,0c0,0,0,0,0,0c0,0,0.1,0,0.1,0c0.1,0,0.1,0,0.2,0.1
			C12.9,9.8,13,9.8,13,9.9C13,9.9,13,9.9,13,9.9 M6.9,9.6C6.9,9.6,6.9,9.6,6.9,9.6C6.9,9.6,6.9,9.6,6.9,9.6C6.9,9.6,6.9,9.6,6.9,9.6
			C6.9,9.6,6.9,9.6,6.9,9.6c-0.1,0-0.2,0-0.2,0c0,0,0,0,0,0.1l0,0c0,0,0,0,0,0c0,0,0,0,0,0c0,0,0,0,0,0c0,0-0.1,0.1-0.1,0.1
			c-0.1,0-0.1-0.1-0.1-0.1c0,0,0,0,0,0c0,0,0,0,0,0c-0.1,0-0.1,0-0.2,0c0-0.1,0.4,0,0.4,0C6.9,9.6,6.9,9.6,6.9,9.6
			C6.9,9.6,6.9,9.6,6.9,9.6 M8.8,11.7c0,0-0.2-0.1-0.5,0.1c0,0-0.2,0.1-0.3,0.1c0,0,0-0.2,0.1-0.5c0,0-0.1,0-0.1,0
			c0,0.2-0.1,0.5-0.2,0.5l-0.1,0c0,0,0,0,0,0c0,0-0.1-0.1-0.2-0.1c0,0,0,0,0,0c-0.1,0-0.1,0.1-0.1,0.1c0,0-0.3,0-0.4,0
			c0,0,0.2-0.1,0.3-0.2c0,0,0.1-0.1-0.2-0.3c0,0-0.2-0.1-0.2,0c0,0,0,0,0.1,0.1c0,0,0.1,0.1-0.1,0.1c0,0-0.1,0-0.1-0.1
			c0,0,0-0.3,0.1-0.5c-0.1,0-0.1,0-0.2,0c0,0.1,0,0.1-0.1,0.2c0,0,0,0.2-0.1,0.2c0,0-0.2-0.2-0.1-0.5c-0.1,0-0.1,0-0.2-0.1
			c0,0.2,0,0.4,0.2,0.7c0,0-0.2,0.2-0.4,0.1c0,0-0.3-0.2-0.1-0.3c0,0,0.1-0.1,0.2,0c-0.1,0-0.1,0.1-0.1,0.1c0,0.1,0.1,0.1,0.1,0.1
			c0.1,0,0.1,0,0.1-0.1c0,0,0-0.2-0.1-0.2c0,0-0.1-0.1-0.3-0.1c0,0,0.2-0.2,0.2-0.4c0,0,0,0,0-0.1c0,0-0.1,0-0.1,0
			c0,0.2-0.1,0.4-0.3,0.4c0,0,0.1-0.2,0.2-0.4c-0.1,0-0.2-0.1-0.3-0.1c0,0,0,0,0,0c0,0.1,0,0.2-0.1,0.3c0,0-0.1,0.1-0.3,0
			c0,0,0.3-0.2,0.3-0.3c-0.1,0-0.1,0-0.2,0H5.2c0,0,0,0,0,0c0,0-0.2,0.1-0.3,0.2c0,0,0,0-0.1,0c0,0-0.2-0.2,0-0.5
			c0,0,0.1-0.2,0.3-0.2c0,0,0.1,0,0.1,0.1c0,0-0.2,0-0.2,0.1c0,0,0,0.1,0.2,0.1c0,0,0.3,0,0.2-0.3c0,0,0-0.2-0.2-0.2
			c0,0,0.1-0.1,0-0.1c0,0-0.1-0.1-0.2,0c0,0,0,0.1-0.2,0c0,0-0.1,0-0.2,0c0,0,0,0,0,0.1c0,0,0,0-0.1,0.2c0,0,0,0.1,0,0.2
			c-0.1,0-0.1-0.1-0.2-0.1C4.2,10.4,4.2,10,4.1,9.8c0,0,0-0.2,0-0.4C4.8,9.2,5,8.8,5.1,8.6C5.2,8.3,5,8,5,7.9c0,0,0,0,0,0
			c0,0,0,0.1,0.1,0.1c0.3,0,0.5,0,0.6-0.1c0,0,0,0,0,0c0,0,0,0,0,0c0,0,0,0,0.1,0c0,0,0,0,0,0c0.4-0.2,0.6-0.5,0.7-0.7
			C6.6,7.1,6.4,7.1,6.3,7c0.2,0,0.3,0.1,0.4,0.1C7,7.1,7.1,6.9,7.4,7c0,0,0,0.1,0.2,0.2c0,0.1,0,0.3,0.1,0.4c0,0,0,0,0,0
			S7.5,7.7,7.5,7.8c0,0,0,0.1,0,0.1c0,0,0,0,0,0c0,0-0.1,0-0.1,0.1c0,0-0.1,0.2,0,0.2c0,0,0,0,0,0c0,0.2,0,0.5,0.1,0.7l0,0
			c0,0,0.3,0.4,1,0.4h0c0.1,0,0.7,0,1,0.4c0,0,0.1,0.1,0.1,0.1c0.1,0,0.1-0.1,0.1-0.1c0.2-0.4,0.9-0.4,1-0.4h0c0.7,0,1-0.4,1-0.4
			l0,0c0.1-0.1,0.1-0.3,0.2-0.4c0.1-0.1,0.1-0.4,0.1-0.4c0,0.1,0.1,0.2,0.3,0.2c0,0.1,0,0.4,0.1,0.4c0.1,0,0.1-0.1,0.1-0.1
			c0.1,0.4,0,0.6,0.1,0.7c0.1,0,0.1-0.2,0.2-0.2c0,0,0.1,0.1,0.1,0.2c0,0.1,0,0.2,0,0.3c0.2,0,0.1-0.5,0.2-0.4c0,0.2,0,0.4,0.1,0.4
			c0,0.1,0,0.2-0.1,0.2c-0.3,0.1-0.5-0.1-0.8-0.1c0,0,0,0,0,0c-0.4-0.2-0.7-0.1-0.7-0.1c-0.1-0.1-0.2,0.1-0.2,0
			c-0.2-0.1-0.4,0.1-0.4,0.1c-0.1,0-0.2-0.1-0.3,0.1c0,0.1-0.3,0.2-0.3,0.2c-0.1,0-0.1-0.1-0.1-0.1c0,0,0-0.1,0-0.1c0,0,0,0,0,0
			c0,0-0.1,0-0.1,0c-0.1,0-0.1,0.1-0.1,0.1c0,0,0,0.1,0,0.1c0,0,0,0,0.1,0c0.1,0,0.1,0,0.1,0.1v0c0,0.1-0.2,0.2-0.2,0.2
			c-0.1,0.1-0.2,0-0.2,0c-0.1-0.1-0.1-0.1-0.1-0.1c-0.1,0-0.1,0.1-0.1,0.1s0-0.1-0.1-0.1c0,0,0,0-0.1,0.1c0,0-0.1,0.1-0.2,0
			c0,0-0.2-0.1-0.2-0.2v0C9,10,9.1,10,9.1,10c0,0,0.1,0,0.1,0c0,0,0-0.1,0-0.1c0-0.1-0.1-0.1-0.1-0.1c0,0-0.1,0-0.1,0c0,0,0,0,0,0
			c0,0,0,0,0,0.1c0,0,0,0.1-0.1,0.1c0,0-0.3-0.1-0.3-0.2C8.4,9.6,8.3,9.7,8.2,9.7C8.2,9.7,8,9.5,7.8,9.6c0,0-0.1-0.1-0.2,0
			c0,0-0.2-0.1-0.6,0c0,0-0.1-0.1-0.2-0.1c-0.1,0-0.1-0.1-0.2-0.1c-0.1,0-0.3,0-0.4,0c0,0-0.1,0-0.1,0C6,9.2,5.8,9.1,5.7,9
			c0,0-0.1-0.1-0.1-0.1c0-0.1-0.1-0.1-0.1-0.2c-0.1-0.2,0-0.3,0.1-0.5c0-0.1,0-0.1,0-0.2c-0.1,0-0.3,0-0.6,0c0.1,0.2,0.1,0.4,0,0.5
			c0.1,0.1,0.1,0.2,0.1,0.2c0,0.1,0,0.2,0,0.2c0.1,0.1,0.3,0.2,0.4,0.3c0,0,0.5,0.4,0.6,0.4c0.1,0,0.1,0,0.2,0c0,0,0,0,0.1,0
			c0,0,0,0,0.1,0.1C6.5,9.9,6.3,10,6.1,10c0,0-0.2,0.1-0.1,0.1c0,0,0.2,0,0.2,0c0,0-0.1,0-0.2,0.1c0.2,0.1,0.5,0.2,0.7,0.2
			c0.2-0.1,0.4-0.3,0.5-0.4c0,0,0.3,0,0.4-0.2c0-0.1,0.1,0.1,0.4,0c0,0,0.1,0.1,0.1,0.1c0,0-0.1,0-0.1,0.1c0,0-0.2,0-0.3,0.1
			c0,0-0.5,0-0.8,0.3c0.1,0,0.1,0,0.2,0c0.1-0.1,0.3-0.2,0.5-0.1c0,0,0.2,0,0.3,0.3c0.1,0,0.3,0,0.4,0.1c0,0,0,0,0,0
			c0,0,0.2-0.1,0.2-0.2c0,0,0-0.1-0.1,0c0,0-0.1,0-0.1,0c0,0,0,0,0-0.1c0,0,0-0.1,0,0c0,0,0.1,0,0.1,0c0.1,0,0.1-0.1,0.1-0.1
			c0-0.1-0.1-0.1-0.1-0.1c0,0,0,0,0,0c0,0,0,0,0,0c0,0,0,0.1-0.1,0c-0.1,0-0.1-0.2,0.1-0.2c0,0,0.1,0,0.2,0.1c0,0,0.2,0.3,0.4,0.3
			c0,0,0,0.1,0.1,0.1c0,0,0,0.1,0.1,0.1c0,0,0,0,0.1,0.1c0.1,0,0.2,0,0.3,0s0.2,0,0.3,0c0-0.1,0-0.1,0.1-0.1c0.1,0,0.1-0.1,0.1-0.1
			c0.1,0,0.1-0.1,0.1-0.1c0.2-0.1,0.4-0.3,0.4-0.3c0.1-0.1,0.2-0.1,0.2-0.1c0.1,0,0.1,0.2,0.1,0.2c0,0-0.1,0-0.1,0c0,0,0,0,0,0
			c0,0,0,0,0,0c-0.1,0-0.1,0.1-0.1,0.1c0,0.1,0.1,0.1,0.1,0.1c0.1,0,0.1,0,0.1,0c0.1,0,0,0,0,0c0,0,0,0.1,0,0.1c0,0.1-0.1,0-0.1,0
			c-0.1-0.1-0.1,0-0.1,0c-0.1,0.1,0.1,0.2,0.2,0.2c0,0,0,0,0,0c0.2,0,0.3,0,0.4-0.1c0.1-0.3,0.3-0.3,0.3-0.3c0.2,0,0.3,0.1,0.5,0.1
			c0.1,0,0.1,0,0.2,0c-0.4-0.3-0.8-0.3-0.8-0.3c-0.1-0.1-0.3-0.1-0.3-0.1c0-0.1-0.1-0.1-0.1-0.1c0.1,0,0.1-0.1,0.1-0.1
			c0.2,0.1,0.4,0,0.4,0c0.1,0.2,0.4,0.2,0.4,0.2c0.2,0.1,0.4,0.2,0.5,0.4c0.2-0.1,0.4-0.1,0.7-0.2c0,0,0,0,0,0c0,0,0,0,0,0
			c0,0,0,0,0,0l0,0c0,0,0,0,0-0.1c-0.1-0.1-0.1-0.2-0.2-0.2c0,0,0,0,0,0c0,0,0,0,0,0c0,0,0.2-0.2,0.3-0.1c0,0,0,0.1-0.1,0.1
			c0,0,0.1,0.2,0.1,0.3c0,0,0,0,0,0c0,0,0.1,0,0.1,0c0,0,0,0,0,0c-0.1-0.1-0.2-0.2-0.1-0.2c0,0,0.1,0,0.2,0c0,0,0-0.1,0-0.2
			c0.1,0,0.1,0,0.2,0c0.2,0,0.2-0.2,0.2-0.3c0,0,0.1-0.1,0.1-0.1c0.1,0.1,0.3,0.2,0.3,0c0,0.1,0.1,0.3,0.2,0.3c0.1,0,0-0.2,0.1-0.2
			c0,0.1,0.1,0.3,0.2,0.2c0,0,0.1-0.1,0.1-0.1c0-0.2-0.6-1.2-0.6-1.7c0,0,0,0,0,0c-0.1,0-0.1-0.1-0.1-0.2c0,0,0,0,0,0
			c-0.1,0-0.2-0.1-0.2-0.3c0-0.2,0.1-0.2,0.1-0.2c0,0,0,0,0,0c0,0.1-0.1,0.3,0,0.4c0,0,0.1,0,0.1,0c0-0.1,0.1-0.1,0.1-0.1
			c0,0,0,0,0,0c-0.1,0.1-0.1,0.2,0,0.3c0,0,0.1,0,0.1,0c0.2-0.1,0.2-0.4,0.3-0.4c0.1,0-0.2,0.6,0,0.7c0.1,0,0.1-0.1,0.2-0.2
			c0.1,0.2-0.2,0.5,0,0.6c0.1,0,0.2-0.3,0.2-0.3c0,0.5-0.2,0.7-0.1,0.8c0.1,0.1,0.2-0.3,0.2-0.3c0,0.5-0.3,0.7-0.2,0.8
			c0.1,0.1,0.2-0.3,0.2-0.2c0,0.5-0.3,0.6-0.1,0.7c0.1,0.2,0.4-0.3,0.4-0.2c0,0.1-0.3,0.7-0.1,0.7c0.1,0,0.2-0.2,0.2-0.2
			c0.4-1.4,0.4-2.7,0.4-3.1C16,6.6,16,6,15.8,5.4c-0.1-0.4-0.3-1.1-0.8-1.2c-0.2,0-0.4,0.2-0.4,0.3c0,0.2,0.1,0.2,0.1,0.4
			c-0.1,0.1-0.1,0.2-0.2,0.3c0,0.1,0.1,0.2,0,0.3c-0.1,0-0.2,0.1-0.4,0.1c-0.2,0.1-0.4,0-0.4,0c0,0,0,0,0,0c0.2,0,0.4-0.1,0.5-0.2
			c0-0.1,0-0.3-0.1-0.4c-0.1,0-0.2,0.1-0.6,0.1c-0.4,0-0.4,0-0.5,0.3c0,0,0-0.1,0-0.1c0-0.1,0.1-0.2,0.3-0.2c0,0,0-0.1,0-0.1
			c-0.1,0-0.1,0-0.2,0c-0.2,0-0.4,0.1-0.5,0.3c0,0,0,0.1,0,0.1c0,0,0,0,0,0.1c0,0,0,0,0,0.1c0.1,0.1,0.2,0.2,0.5,0.2c0,0,0,0,0,0
			c0,0-0.1,0-0.1,0c0,0-0.3,0-0.4-0.1c0,0,0,0,0,0c-0.1,0.1-0.2,0.1-0.3,0.1c-0.1,0-0.3-0.1-0.3-0.1c-0.2-0.2,0-0.6,0-0.7
			c0-0.4-0.6-0.2-0.8-0.1c-0.2,0.1-0.4,0.3-0.6,0.5c-0.1,0.1-0.2,0.2-0.2,0.3c0.1,0,0.3,0.1,0.4,0.1h0c0,0,0,0,0.1,0
			c0.1,0,0.2,0,0.4-0.1c0,0,0.1,0,0.1,0c0.1,0,0.1,0,0.1,0.1c0,0,0.4,0.3,0.5,0.4c0,0,0,0,0.1,0.1c0,0,0,0.1,0,0.1
			c0,0-0.2,0.2-0.3,0.5c0,0,0,0.1,0,0.1c0,0.1-0.1,0.4,0.1,0.4c0,0,0.2,0.1,0.2-0.3c0,0,0,0.2,0.2,0.2c0.1,0,0.1-0.1,0.1-0.2v0
			c0-0.1,0-0.3,0-0.5c0,0,0,0,0,0c0,0,0,0,0,0.1c0,0.1-0.1,0.9,0.7,1.5c0,0-0.3-0.1-0.5-0.5c-0.1,0.1-0.3,0.2-0.2,0.5
			c0,0.1,0.1,0.2,0.2,0.2c0,0,0,0,0,0c0,0,0,0-0.1,0h0c0,0,0,0,0,0c0,0,0-0.1-0.1-0.1c-0.1-0.1-0.2-0.1-0.2-0.2l0,0
			c-0.1-0.1,0-0.4-0.4-0.4c0,0,0,0,0,0h0c0,0,0,0-0.1,0c0,0,0,0,0,0c-0.1-0.3-0.1-0.5-0.1-0.5c0.1-0.4,0.4-0.8,0.4-0.8
			c0,0,0,0,0-0.1c0,0,0,0,0,0l0,0c-0.1-0.1-0.5-0.3-0.5-0.4l0,0c0,0-0.1,0-0.1,0c0,0-0.1,0-0.1,0c-0.1,0.1-0.3,0.1-0.4,0.1
			c0,0-0.1,0-0.1,0h0c-0.2,0-0.4-0.1-0.5-0.1C10,5.5,9.7,5.5,9.7,5.5c0,0-0.3,0-0.6,0.1c0,0-0.3,0.1-0.5,0.1h0c0,0,0,0-0.1,0
			c-0.1,0-0.3,0-0.4-0.1l0,0c0,0,0,0-0.1,0c0,0-0.1,0-0.1,0l0,0c0,0-0.4,0.3-0.5,0.4l0,0c0,0,0,0,0,0c0,0,0,0,0,0.1
			c0,0,0.3,0.4,0.4,0.8c0,0,0,0.1,0,0.2c0-0.1-0.1-0.2-0.1-0.2c0,0,0-0.1,0-0.1c0-0.1-0.1-0.1-0.2-0.2c-0.1,0-0.1,0-0.2-0.1
			C7.2,6.5,7.1,6.4,7.1,6.3C7.1,6.1,7,5.9,7,5.9c0,0,0.2,0.1,0.2,0.3c0.2-0.2,0.2-0.4,0.3-0.7C7.6,5.4,7.9,5.5,8,5.5
			c0,0,0.1,0,0.1,0c0,0,0,0.1,0.1,0.1c0.1,0,0.1,0,0.2,0c0,0,0,0.1,0,0.1c0,0,0,0,0,0h0h0C8.7,5.7,9,5.6,9,5.6l0,0c0,0,0,0,0,0
			C9,5.5,8.8,5.5,8.7,5.4c-0.1,0-0.2-0.1-0.3-0.1c0,0-0.1,0-0.2,0C8,5.3,7.8,5.2,7.5,5.2c-0.2,0-0.2,0.1-0.3,0.3
			c0,0-0.1,0.1-0.1,0.1C7,5.7,6.9,5.7,6.9,5.7c0,0,0,0,0,0c0-0.1-0.1-0.2-0.1-0.3c0,0,0,0,0,0c0,0,0,0,0,0C6.6,5.2,6.4,5.1,6.2,5
			C6.1,5,6.1,5,6.1,4.9c0,0,0-0.1,0-0.1c0.1,0,0.2,0,0.3-0.1c0.2-0.1,0.1-0.3,0.1-0.3c-0.1,0-0.3-0.1-0.4-0.1C6,4.4,6,4.3,5.9,4.2
			c-0.1,0-0.1,0-0.2,0c-0.1,0-0.1,0-0.1,0c0.1-0.1,0.1-0.1,0.3-0.1C5.7,4.1,5.8,4,5.7,3.9c0,0-0.1,0-0.2,0c0-0.1,0-0.2-0.1-0.3
			c-0.1,0-0.1,0-0.1,0.1c0,0,0.1,0.1,0.1,0.3c0,0,0,0-0.1,0c0-0.1,0-0.2-0.1-0.2c-0.1,0-0.1,0-0.1,0.1c0,0,0.1,0.1,0.1,0.2
			c0,0-0.1,0-0.1,0.1C5,4.2,5,4.1,4.9,4c0,0-0.1,0-0.1,0.1c0,0.1,0.2,0.1,0.2,0.1c0,0,0,0,0,0.1c-0.2,0-0.2-0.2-0.3-0.2
			c0,0-0.1,0-0.1,0.1c0,0.1,0.2,0.1,0.3,0.2c0,0,0,0.1,0,0.1c-0.1,0-0.4,0.1-0.3,0.2c0,0,0.2-0.1,0.4,0c0.1,0.1,0.3,0.2,0.3,0.2
			c0.1,0,0.1,0.1,0.1,0.2c0,0.1,0.1,0.2,0.2,0.3c0.1,0.1,0.2,0.3,0.3,0.4c0,0,0,0.1,0,0.1C5.7,6.1,5.4,6.2,5.3,6.3
			C5.2,6.5,4,7.3,3.8,7.7c0,0.1-0.1,0.2,0,0.3c-0.1,0-0.2,0-0.2,0c-0.1-0.1,0.1-0.2,0-0.3c0,0-0.1-0.1-0.1,0C3.4,7.7,3.3,7.9,3.4,8
			c0,0,0.1,0.1,0,0.1c0,0-0.1,0-0.1-0.1c0,0,0,0.1,0,0.1c0,0.1,0.1,0.1,0.2,0.1c0,0-0.1,0.1-0.1,0c-0.1,0.1,0,0.1,0,0.1
			c0.1,0,0.2,0,0.2-0.1c0,0,0,0.1-0.1,0.1c0.1,0.1,0.2-0.1,0.4-0.1c0,0,0.4,0.3,0.4,0.6c0,0,0,0.1,0,0.1C4.1,9,4,9.1,3.9,9.2
			C3.7,9.3,4.1,10.1,4,10.4c0,0.2,0.1,0.1,0.2,0.4c-0.1,0-0.2,0-0.2,0.1c0,0,0,0,0,0l0,0C4,11,4,11,4,11c0,0.1,0.1,0.2,0.2,0.2
			c0.1,0,0.2-0.1,0.2-0.2c0,0,0,0,0,0c0,0,0.1,0,0.2,0l0.2,0.1c0,0-0.6,0.5-1.6,0.2c0,0-0.5-0.1-0.3-0.5c0,0,0-0.1,0.1-0.1
			c0,0.1,0,0.1,0.1,0.1c0,0,0.1,0,0.1,0c0.1,0,0.2-0.1,0.2-0.2c0-0.1,0-0.1-0.1-0.2c0,0,0,0,0,0c0,0,0,0,0,0c0,0,0,0,0,0
			c-0.1,0-0.2-0.1-0.3,0c0,0-0.4,0.1-0.3,0.6c0,0-0.3-0.1-0.4,0.1c0,0,0,0,0,0.1l0,0v0c0,0,0,0.1,0,0.1c0,0,0.1,0.1,0.1,0.1
			c0.1,0,0.1,0,0.1-0.1c0,0,0,0,0,0c0,0,0,0,0.1,0c0,0,0.4,0.4,1,0.4c0,0,0,0.3,0.2,0.3c0,0,0,0,0,0c0.1,0,0.1,0,0.1-0.1
			c0-0.1,0-0.1-0.1-0.1c0,0,0,0,0,0c0,0,0-0.1,0-0.2c0,0,0.7-0.1,1.1-0.4c0,0,0.3,0.1,0.5,0.1c0,0,0,0.1-0.1,0.1c0,0-0.2,0-0.2,0.1
			c0,0,0,0.1,0.1,0.1c0,0,0,0.1,0.1,0.1c0,0,0.1,0,0,0.1c0,0-0.1,0.1-0.1,0.1c0,0,0,0.1,0.2,0.1c0,0,0.1,0,0,0c0,0-0.1,0.1,0.1,0.2
			c0,0,0.1,0.1,0.2-0.1c0,0,0,0,0.1,0c0,0,0.4,0.2,0.6-0.1c0,0,0,0,0.1,0c0,0,0.2,0.2,0.8,0.2c0,0.1,0.1,0.1,0.2,0.1
			c0.1,0,0.2-0.1,0.2-0.2c0.1,0,0.3,0,0.6-0.2c0,0,0.1-0.1,0.2-0.1c0,0.1,0.1,0.3,0.3,0.3c0.2,0,0.3-0.1,0.3-0.3
			C9,11.8,8.9,11.7,8.8,11.7"/>
		<path class="st5" d="M23.3,38.6c-0.3,0.1-0.5,0.2-0.7,0.2c-0.6,0-0.9-0.4-0.9-1c0-0.6,0.3-1,1-1c0.3,0,0.5,0.1,0.7,0.2l-0.2,0.3
			c-0.1-0.1-0.3-0.1-0.5-0.1c-0.4,0-0.5,0.3-0.5,0.7c0,0.5,0.2,0.7,0.5,0.7c0.1,0,0.3,0,0.4-0.1V38h-0.3l0-0.3h0.7V38.6z"/>
		<path class="st5" d="M24.6,38c0-0.3-0.1-0.5-0.3-0.5c-0.2,0-0.3,0.1-0.3,0.5c0,0.3,0.1,0.5,0.3,0.5C24.5,38.5,24.6,38.3,24.6,38
			 M25,38c0,0.5-0.3,0.7-0.7,0.7c-0.5,0-0.7-0.3-0.7-0.7c0-0.4,0.2-0.7,0.7-0.7C24.7,37.3,25,37.6,25,38"/>
		<path class="st5" d="M25.7,38.3c0.1,0.1,0.2,0.1,0.3,0.1c0.2,0,0.3-0.1,0.3-0.5c0-0.3-0.1-0.5-0.3-0.5c-0.1,0-0.2,0-0.3,0.1V38.3z
			 M25.6,37.4c0.1-0.1,0.2-0.2,0.4-0.2c0.4,0,0.6,0.2,0.6,0.7c0,0.5-0.3,0.7-0.7,0.7c-0.2,0-0.3-0.1-0.4-0.2l-0.1,0.2h-0.2v-2h0.4
			v0.5L25.6,37.4z"/>
	</g>
	<path class="st1" d="M26.9,37.3v0.2l0.2,0v1.2h0.4v-1.4H26.9z M27.1,37.1h0.4v-0.3h-0.4V37.1z"/>
	<g>
		<defs>
			<rect id="SVGID_9_" width="47.4" height="40.8"/>
		</defs>
		<clipPath id="SVGID_10_">
			<use xlink:href="#SVGID_9_"  style="overflow:visible;"/>
		</clipPath>
		<path class="st6" d="M28.5,37.6c-0.2,0-0.3,0.2-0.3,0.3h0.6C28.7,37.7,28.7,37.6,28.5,37.6 M28.2,38.1c0,0.2,0.1,0.4,0.4,0.4
			c0.2,0,0.3-0.1,0.4-0.1l0.1,0.3c-0.1,0.1-0.3,0.1-0.6,0.1c-0.5,0-0.7-0.3-0.7-0.7c0-0.4,0.2-0.7,0.7-0.7c0.5,0,0.6,0.3,0.6,0.7
			v0.2H28.2z"/>
		<path class="st6" d="M30.3,37.6c0,0-0.1,0-0.2,0c-0.1,0-0.2,0-0.3,0.1v1h-0.4v-1.4h0.3l0,0.2h0c0-0.1,0.2-0.2,0.4-0.2
			c0.1,0,0.1,0,0.2,0L30.3,37.6z"/>
		<path class="st6" d="M31.5,38.7v-0.8c0-0.2-0.1-0.3-0.3-0.3c-0.1,0-0.2,0-0.3,0.1v1.1h-0.4v-1.4h0.3l0.1,0.2
			c0.1-0.1,0.3-0.2,0.5-0.2c0.4,0,0.5,0.2,0.5,0.6v0.9H31.5z"/>
		<path class="st6" d="M33.1,38c0-0.3-0.1-0.5-0.3-0.5c-0.2,0-0.3,0.1-0.3,0.5c0,0.3,0.1,0.5,0.3,0.5C33,38.5,33.1,38.3,33.1,38
			 M33.5,38c0,0.5-0.3,0.7-0.7,0.7c-0.5,0-0.7-0.3-0.7-0.7c0-0.4,0.2-0.7,0.7-0.7C33.3,37.3,33.5,37.6,33.5,38"/>
		<path class="st6" d="M35.5,37.6c-0.1,0-0.2-0.1-0.3-0.1c-0.2,0-0.3,0.1-0.3,0.5c0,0.3,0.1,0.5,0.3,0.5c0.1,0,0.2,0,0.3-0.1V37.6z
			 M35.5,37.4c0-0.1,0-0.2,0-0.3v-0.4h0.4v2h-0.3l0-0.2c-0.1,0.1-0.2,0.2-0.4,0.2c-0.3,0-0.6-0.2-0.6-0.7c0-0.5,0.3-0.7,0.6-0.7
			C35.3,37.3,35.4,37.3,35.5,37.4"/>
		<path class="st6" d="M36.8,37.6c-0.2,0-0.3,0.2-0.3,0.3h0.6C37.1,37.7,37.1,37.6,36.8,37.6 M36.6,38.1c0,0.2,0.1,0.4,0.4,0.4
			c0.2,0,0.3-0.1,0.4-0.1l0.1,0.3c-0.1,0.1-0.3,0.1-0.6,0.1c-0.5,0-0.7-0.3-0.7-0.7c0-0.4,0.2-0.7,0.7-0.7c0.5,0,0.6,0.3,0.6,0.7
			v0.2H36.6z"/>
		<path class="st6" d="M39.3,38.8c-0.6,0-0.9-0.4-0.9-1c0-0.6,0.3-1,0.9-1c0.3,0,0.5,0.1,0.7,0.2l-0.2,0.3c-0.1-0.1-0.3-0.1-0.5-0.1
			c-0.3,0-0.5,0.2-0.5,0.7c0,0.5,0.2,0.7,0.5,0.7c0.2,0,0.4-0.1,0.5-0.2l0.1,0.3C39.8,38.7,39.6,38.8,39.3,38.8"/>
		<path class="st6" d="M40.3,38.7v-2h0.4v0.5c0,0.1,0,0.2,0,0.2c0.1-0.1,0.2-0.2,0.4-0.2c0.4,0,0.6,0.2,0.6,0.6v0.9h-0.4v-0.8
			c0-0.2-0.1-0.3-0.3-0.3c-0.1,0-0.2,0-0.3,0.1v1.1H40.3z"/>
	</g>
	<path class="st1" d="M41.9,37.3v0.2l0.2,0v1.2h0.4v-1.4H41.9z M42.1,37.1h0.4v-0.3h-0.4V37.1z"/>
	<g>
		<defs>
			<rect id="SVGID_11_" width="47.4" height="40.8"/>
		</defs>
		<clipPath id="SVGID_12_">
			<use xlink:href="#SVGID_11_"  style="overflow:visible;"/>
		</clipPath>
		<path class="st7" d="M42.9,38.3v-1.6h0.4v1.6c0,0.1,0.1,0.1,0.2,0.1v0.3c0,0-0.1,0-0.2,0C43,38.8,42.9,38.6,42.9,38.3"/>
		<path class="st7" d="M44.4,37.6c-0.2,0-0.3,0.2-0.3,0.3h0.5C44.7,37.7,44.6,37.6,44.4,37.6 M44.1,38.1c0,0.2,0.1,0.4,0.4,0.4
			c0.2,0,0.3-0.1,0.4-0.1l0.1,0.3c-0.1,0.1-0.3,0.1-0.6,0.1c-0.5,0-0.7-0.3-0.7-0.7c0-0.4,0.2-0.7,0.7-0.7c0.5,0,0.6,0.3,0.6,0.7
			v0.2H44.1z"/>
		<path class="st7" d="M23.8,4.6l-0.1-2.1h0c0,0.3-0.1,0.5-0.1,0.6l-0.4,1.5h-0.7l-0.4-1.5C22.1,3,22,2.8,22,2.5h0l0,2.1h-0.5
			l0.1-2.5h0.9c0,0,0.3,1.2,0.4,2h0c0.2-0.8,0.5-2,0.5-2h0.9l0.1,2.5H23.8z"/>
	</g>
	<path class="st1" d="M24.7,2.8v0.3l0.2,0v1.4h0.5V2.8H24.7z M24.9,2.5h0.5V2.1h-0.5V2.5z"/>
	<g>
		<defs>
			<rect id="SVGID_13_" width="47.4" height="40.8"/>
		</defs>
		<clipPath id="SVGID_14_">
			<use xlink:href="#SVGID_13_"  style="overflow:visible;"/>
		</clipPath>
		<path class="st8" d="M27,4.6V3.5c0-0.3-0.1-0.4-0.3-0.4c-0.1,0-0.2,0.1-0.3,0.1v1.4h-0.5V2.8h0.3L26.3,3c0.1-0.1,0.3-0.2,0.6-0.2
			c0.5,0,0.7,0.3,0.7,0.7v1.1H27z"/>
	</g>
	<path class="st1" d="M27.9,2.8v0.3l0.2,0v1.4h0.5V2.8H27.9z M28.1,2.5h0.5V2.1h-0.5V2.5z"/>
	<g>
		<defs>
			<rect id="SVGID_15_" width="47.4" height="40.8"/>
		</defs>
		<clipPath id="SVGID_16_">
			<use xlink:href="#SVGID_15_"  style="overflow:visible;"/>
		</clipPath>
		<path class="st9" d="M29.4,3.3c0,0.3,0.8,0.2,0.8,0.8c0,0.3-0.3,0.6-0.7,0.6c-0.2,0-0.4-0.1-0.6-0.1l0.1-0.3
			c0.1,0.1,0.3,0.1,0.4,0.1c0.2,0,0.3-0.1,0.3-0.2c0-0.3-0.8-0.2-0.8-0.8c0-0.3,0.2-0.5,0.7-0.5c0.2,0,0.4,0,0.5,0.1l-0.1,0.3
			c-0.1-0.1-0.3-0.1-0.5-0.1C29.5,3.1,29.4,3.2,29.4,3.3"/>
		<path class="st9" d="M31.3,4.6c-0.3,0-0.6-0.1-0.6-0.6V3.1h-0.3V2.8h0.3V2.5l0.5-0.2v0.5h0.5v0.3h-0.5V4c0,0.1,0.1,0.2,0.2,0.2
			c0.1,0,0.2,0,0.3-0.1l0.1,0.4C31.7,4.6,31.5,4.6,31.3,4.6"/>
		<path class="st9" d="M32.8,3.1c-0.3,0-0.4,0.2-0.4,0.4h0.7C33.2,3.3,33.1,3.1,32.8,3.1 M32.5,3.8c0,0.3,0.2,0.4,0.5,0.4
			c0.2,0,0.4-0.1,0.6-0.2l0.1,0.3c-0.2,0.1-0.4,0.2-0.7,0.2c-0.6,0-0.9-0.3-0.9-0.9c0-0.6,0.3-0.9,0.9-0.9c0.6,0,0.8,0.4,0.8,0.9
			v0.2H32.5z"/>
		<path class="st9" d="M35.1,3.2c-0.1,0-0.1,0-0.2,0c-0.1,0-0.3,0.1-0.3,0.1v1.3H34V2.8h0.4L34.4,3h0c0.1-0.1,0.2-0.3,0.5-0.3
			c0.1,0,0.2,0,0.2,0L35.1,3.2z"/>
	</g>
	<path class="st1" d="M35.3,2.8v0.3l0.2,0v1.4H36V2.8H35.3z M35.5,2.5H36V2.1h-0.5V2.5z"/>
	<g>
		<defs>
			<rect id="SVGID_17_" width="47.4" height="40.8"/>
		</defs>
		<clipPath id="SVGID_18_">
			<use xlink:href="#SVGID_17_"  style="overflow:visible;"/>
		</clipPath>
		<path class="st10" d="M37.7,3.7c0-0.4-0.1-0.6-0.4-0.6c-0.2,0-0.4,0.2-0.4,0.6c0,0.4,0.1,0.6,0.4,0.6C37.5,4.3,37.7,4.1,37.7,3.7
			 M38.2,3.7c0,0.6-0.3,0.9-0.9,0.9c-0.6,0-0.9-0.3-0.9-0.9c0-0.5,0.3-0.9,0.9-0.9C37.9,2.8,38.2,3.2,38.2,3.7"/>
		<path class="st10" d="M40.5,3.2c-0.1,0-0.2-0.1-0.3-0.1c-0.2,0-0.4,0.2-0.4,0.6c0,0.4,0.1,0.6,0.4,0.6c0.1,0,0.3-0.1,0.4-0.2V3.2z
			 M40.6,2.9c0-0.1,0-0.2,0-0.3V2.1H41v2.5h-0.4l-0.1-0.2c-0.1,0.1-0.3,0.2-0.5,0.2c-0.4,0-0.8-0.3-0.8-0.9c0-0.6,0.4-0.9,0.8-0.9
			C40.3,2.8,40.5,2.8,40.6,2.9"/>
		<path class="st10" d="M42.3,3.1c-0.3,0-0.4,0.2-0.4,0.4h0.7C42.6,3.3,42.5,3.1,42.3,3.1 M41.9,3.8c0,0.3,0.2,0.4,0.5,0.4
			c0.2,0,0.4-0.1,0.6-0.2L43,4.4c-0.2,0.1-0.4,0.2-0.7,0.2c-0.6,0-0.9-0.3-0.9-0.9c0-0.6,0.3-0.9,0.9-0.9c0.6,0,0.8,0.4,0.8,0.9v0.2
			H41.9z"/>
		<path class="st10" d="M21.5,8V5.9H22v2c0,0.1,0.1,0.2,0.3,0.2v0.3c0,0-0.1,0-0.3,0C21.6,8.5,21.5,8.3,21.5,8"/>
		<path class="st10" d="M23.6,7.7h-0.3c-0.2,0-0.3,0.1-0.3,0.2c0,0.2,0.1,0.3,0.3,0.3c0.1,0,0.2-0.1,0.3-0.1V7.7z M23.7,8.5
			l-0.1-0.2c-0.1,0.1-0.3,0.2-0.6,0.2c-0.4,0-0.6-0.2-0.6-0.6c0-0.3,0.3-0.5,0.7-0.5h0.4V7.3c0-0.2-0.1-0.3-0.3-0.3
			c-0.2,0-0.4,0.1-0.6,0.1l-0.1-0.3c0.2-0.1,0.4-0.1,0.7-0.1c0.5,0,0.8,0.2,0.8,0.7v1.1H23.7z"/>
		<path class="st10" d="M24.9,7.2c0,0.3,0.8,0.2,0.8,0.8c0,0.3-0.3,0.6-0.7,0.6c-0.2,0-0.4-0.1-0.6-0.1L24.6,8
			c0.1,0.1,0.3,0.1,0.4,0.1c0.2,0,0.3-0.1,0.3-0.2c0-0.3-0.8-0.2-0.8-0.8c0-0.3,0.2-0.5,0.7-0.5c0.2,0,0.4,0,0.5,0.1l-0.1,0.3
			C25.5,7,25.4,7,25.2,7C25,7,24.9,7,24.9,7.2"/>
		<path class="st10" d="M28,8.5c-0.7,0-1.1-0.5-1.1-1.3C26.9,6.5,27.3,6,28,6c0.4,0,0.7,0.1,0.9,0.2l-0.2,0.4
			c-0.1-0.1-0.4-0.2-0.6-0.2c-0.4,0-0.6,0.3-0.6,0.8c0,0.6,0.2,0.9,0.6,0.9c0.3,0,0.5-0.1,0.7-0.2l0.2,0.4C28.7,8.4,28.4,8.5,28,8.5
			"/>
		<path class="st10" d="M30.5,8.5l-0.1-0.2c-0.1,0.1-0.3,0.3-0.6,0.3c-0.5,0-0.7-0.2-0.7-0.7V6.7h0.5v1.1c0,0.3,0.1,0.4,0.3,0.4
			c0.1,0,0.3,0,0.3-0.1V6.7h0.5v1.8H30.5z"/>
		<path class="st10" d="M31.3,8V5.9h0.5v2c0,0.1,0.1,0.2,0.3,0.2v0.3c0,0-0.1,0-0.3,0C31.4,8.5,31.3,8.3,31.3,8"/>
		<path class="st10" d="M33.1,8.5c-0.3,0-0.6-0.2-0.6-0.6V7h-0.3V6.7h0.3V6.4L33,6.2v0.5h0.5V7H33v0.9c0,0.1,0.1,0.2,0.2,0.2
			c0.1,0,0.2,0,0.3-0.1l0.1,0.4C33.5,8.5,33.3,8.5,33.1,8.5"/>
		<path class="st10" d="M35.2,8.5l-0.1-0.2c-0.1,0.1-0.3,0.3-0.6,0.3c-0.5,0-0.7-0.2-0.7-0.7V6.7h0.5v1.1c0,0.3,0.1,0.4,0.3,0.4
			c0.1,0,0.3,0,0.3-0.1V6.7h0.5v1.8H35.2z"/>
		<path class="st10" d="M37,7.1c-0.1,0-0.2,0-0.2,0c-0.1,0-0.3,0.1-0.3,0.1v1.3h-0.5V6.7h0.4l0.1,0.2h0c0.1-0.1,0.2-0.3,0.5-0.3
			c0.1,0,0.2,0,0.2,0L37,7.1z"/>
		<path class="st10" d="M38.3,7.7H38c-0.2,0-0.3,0.1-0.3,0.2c0,0.2,0.1,0.3,0.3,0.3c0.1,0,0.2-0.1,0.3-0.1V7.7z M38.4,8.5l-0.1-0.2
			c-0.1,0.1-0.3,0.2-0.6,0.2c-0.4,0-0.6-0.2-0.6-0.6c0-0.3,0.3-0.5,0.7-0.5h0.4V7.3c0-0.2-0.1-0.3-0.3-0.3c-0.2,0-0.4,0.1-0.6,0.1
			l-0.1-0.3c0.2-0.1,0.4-0.1,0.7-0.1c0.5,0,0.8,0.2,0.8,0.7v1.1H38.4z"/>
		<path class="st10" d="M39.6,7.2c0,0.3,0.8,0.2,0.8,0.8c0,0.3-0.3,0.6-0.7,0.6c-0.2,0-0.4-0.1-0.6-0.1L39.2,8
			c0.1,0.1,0.3,0.1,0.4,0.1c0.2,0,0.3-0.1,0.3-0.2c0-0.3-0.8-0.2-0.8-0.8c0-0.3,0.2-0.5,0.7-0.5c0.2,0,0.4,0,0.5,0.1l-0.1,0.3
			C40.2,7,40,7,39.9,7C39.7,7,39.6,7,39.6,7.2"/>
		<path class="st10" d="M40.8,8h0.5v0.5c0,0.3-0.2,0.4-0.5,0.5V8.7c0.1,0,0.1-0.1,0.1-0.2l-0.1-0.1V8z"/>
		<path class="st10" d="M21.5,11.9V9.8H22v2c0,0.2,0.1,0.2,0.3,0.2v0.3c0,0-0.1,0-0.3,0C21.6,12.4,21.5,12.2,21.5,11.9"/>
		<path class="st10" d="M23.6,11.6h-0.3c-0.2,0-0.3,0.1-0.3,0.2c0,0.2,0.1,0.3,0.3,0.3c0.1,0,0.2-0.1,0.3-0.1V11.6z M23.7,12.4
			l-0.1-0.2c-0.1,0.1-0.3,0.2-0.6,0.2c-0.4,0-0.6-0.2-0.6-0.6c0-0.3,0.3-0.5,0.7-0.5h0.4v-0.1c0-0.2-0.1-0.3-0.3-0.3
			c-0.2,0-0.4,0.1-0.6,0.1l-0.1-0.3c0.2-0.1,0.4-0.1,0.7-0.1c0.5,0,0.8,0.2,0.8,0.7v1.1H23.7z"/>
		<path class="st10" d="M24.9,11c0,0.3,0.8,0.2,0.8,0.8c0,0.3-0.3,0.6-0.7,0.6c-0.2,0-0.4-0.1-0.6-0.1l0.1-0.3
			c0.1,0.1,0.3,0.1,0.4,0.1c0.2,0,0.3-0.1,0.3-0.2c0-0.3-0.8-0.2-0.8-0.8c0-0.3,0.2-0.5,0.7-0.5c0.2,0,0.4,0,0.5,0.1L25.7,11
			c-0.1-0.1-0.3-0.1-0.5-0.1C25,10.9,24.9,10.9,24.9,11"/>
	</g>
	<path class="st1" d="M27.8,10.3l-0.3,1.1h0.7L28,10.3H27.8z M27.3,12.4h-0.5l0.7-2.5h0.8l0.7,2.5h-0.6l-0.1-0.6h-0.9L27.3,12.4z"/>
	<g>
		<defs>
			<rect id="SVGID_19_" width="47.4" height="40.8"/>
		</defs>
		<clipPath id="SVGID_20_">
			<use xlink:href="#SVGID_19_"  style="overflow:visible;"/>
		</clipPath>
		<path class="st11" d="M30.4,11c-0.1,0-0.1,0-0.2,0c-0.1,0-0.3,0.1-0.3,0.1v1.3h-0.5v-1.8h0.4l0.1,0.2h0c0.1-0.1,0.2-0.3,0.5-0.3
			c0.1,0,0.2,0,0.2,0L30.4,11z"/>
		<path class="st11" d="M31.3,12.4c-0.3,0-0.6-0.2-0.6-0.6v-0.9h-0.3v-0.3h0.3v-0.3l0.5-0.2v0.5h0.5v0.3h-0.5v0.9
			c0,0.1,0.1,0.2,0.2,0.2c0.1,0,0.2,0,0.3-0.1l0.1,0.4C31.7,12.3,31.5,12.4,31.3,12.4"/>
		<path class="st11" d="M32.8,10.9c-0.3,0-0.4,0.2-0.4,0.4h0.7C33.2,11.1,33.1,10.9,32.8,10.9 M32.5,11.6c0,0.3,0.2,0.4,0.5,0.4
			c0.2,0,0.4-0.1,0.6-0.2l0.1,0.3c-0.2,0.1-0.4,0.2-0.7,0.2c-0.6,0-0.9-0.3-0.9-0.9c0-0.6,0.3-0.9,0.9-0.9c0.6,0,0.8,0.4,0.8,0.9
			v0.2H32.5z"/>
		<path class="st11" d="M34.5,11c0,0.3,0.8,0.2,0.8,0.8c0,0.3-0.3,0.6-0.7,0.6c-0.2,0-0.4-0.1-0.6-0.1l0.1-0.3
			c0.1,0.1,0.3,0.1,0.4,0.1c0.2,0,0.3-0.1,0.3-0.2c0-0.3-0.8-0.2-0.8-0.8c0-0.3,0.2-0.5,0.7-0.5c0.2,0,0.4,0,0.5,0.1L35.2,11
			c-0.1-0.1-0.3-0.1-0.5-0.1C34.5,10.9,34.5,10.9,34.5,11"/>
		<path class="st11" d="M37.2,12.3l-0.4,0.1l-0.6-1.8h0.6l0.4,1.5h0l0.4-1.5h0.5l-0.6,1.8c-0.2,0.5-0.4,0.7-0.8,0.7
			c-0.2,0-0.5-0.1-0.5-0.2l0.2-0.3h0c0,0,0.2,0.1,0.3,0.1C37,12.7,37.1,12.6,37.2,12.3L37.2,12.3z"/>
		<path class="st11" d="M22.3,14.8c-0.3,0-0.4,0.2-0.4,0.4h0.7C22.6,15,22.5,14.8,22.3,14.8 M21.9,15.5c0,0.3,0.2,0.4,0.5,0.4
			c0.2,0,0.4-0.1,0.6-0.2l0.1,0.3c-0.2,0.1-0.4,0.2-0.7,0.2c-0.6,0-0.9-0.3-0.9-0.9c0-0.6,0.3-0.9,0.9-0.9c0.6,0,0.8,0.4,0.8,0.9
			v0.2H21.9z"/>
		<path class="st11" d="M23.4,15.8v-2.1h0.5v2c0,0.2,0.1,0.2,0.3,0.2v0.3c0,0-0.1,0-0.3,0C23.6,16.3,23.4,16.1,23.4,15.8"/>
		<path class="st11" d="M26.2,14.2h-0.3V15h0.3c0.3,0,0.5-0.2,0.5-0.4C26.6,14.3,26.5,14.2,26.2,14.2 M26.2,15.4h-0.3v0.9h-0.5v-2.5
			h0.8c0.5,0,1,0.2,1,0.8C27.2,15,26.8,15.4,26.2,15.4"/>
		<path class="st11" d="M28.4,15.5h-0.3c-0.2,0-0.3,0.1-0.3,0.2c0,0.2,0.1,0.3,0.3,0.3c0.1,0,0.2-0.1,0.3-0.1V15.5z M28.5,16.3
			L28.5,16c-0.1,0.1-0.3,0.2-0.6,0.2c-0.4,0-0.6-0.2-0.6-0.6c0-0.3,0.3-0.5,0.7-0.5h0.4v-0.1c0-0.2-0.1-0.3-0.3-0.3
			c-0.2,0-0.4,0.1-0.6,0.1l-0.1-0.3c0.2-0.1,0.4-0.1,0.7-0.1c0.5,0,0.8,0.2,0.8,0.7v1.1H28.5z"/>
		<path class="st11" d="M30,16.3c-0.3,0-0.6-0.1-0.6-0.6v-0.9h-0.3v-0.3h0.3v-0.3l0.5-0.2v0.5h0.5v0.3h-0.5v0.9
			c0,0.1,0.1,0.2,0.2,0.2c0.1,0,0.2,0,0.3-0.1l0.1,0.4C30.4,16.2,30.2,16.3,30,16.3"/>
		<path class="st11" d="M31.9,14.9c-0.1,0-0.1,0-0.2,0c-0.1,0-0.3,0.1-0.3,0.1v1.3h-0.5v-1.8h0.4l0.1,0.2h0c0.1-0.1,0.2-0.3,0.5-0.3
			c0.1,0,0.2,0,0.2,0L31.9,14.9z"/>
	</g>
	<path class="st1" d="M32.1,14.5v0.3l0.2,0v1.5h0.5v-1.8H32.1z M32.3,14.2h0.5v-0.4h-0.5V14.2z"/>
	<g>
		<defs>
			<rect id="SVGID_21_" width="47.4" height="40.8"/>
		</defs>
		<clipPath id="SVGID_22_">
			<use xlink:href="#SVGID_21_"  style="overflow:visible;"/>
		</clipPath>
		<path class="st12" d="M34.9,15.1v1.1h-0.5v-1.1c0-0.3-0.1-0.4-0.3-0.4c-0.1,0-0.2,0.1-0.3,0.1v1.4h-0.5v-1.8h0.3l0.1,0.2
			c0.1-0.1,0.3-0.2,0.6-0.2c0.3,0,0.5,0.1,0.6,0.3c0.1-0.1,0.3-0.3,0.6-0.3c0.5,0,0.7,0.3,0.7,0.7v1.1h-0.5v-1.1
			c0-0.3-0.1-0.4-0.4-0.4c-0.1,0-0.2,0.1-0.3,0.1C34.9,15,34.9,15.1,34.9,15.1"/>
		<path class="st12" d="M37.7,15.4c0-0.4-0.1-0.6-0.4-0.6c-0.2,0-0.4,0.2-0.4,0.6c0,0.4,0.1,0.6,0.4,0.6
			C37.5,15.9,37.7,15.8,37.7,15.4 M38.2,15.4c0,0.6-0.3,0.9-0.9,0.9c-0.6,0-0.9-0.3-0.9-0.9c0-0.5,0.3-0.9,0.9-0.9
			C37.9,14.4,38.2,14.8,38.2,15.4"/>
		<path class="st12" d="M39.7,16.3v-1.1c0-0.3-0.1-0.4-0.3-0.4c-0.1,0-0.2,0.1-0.3,0.1v1.4h-0.5v-1.8h0.3l0.1,0.2
			c0.1-0.1,0.3-0.2,0.6-0.2c0.5,0,0.7,0.3,0.7,0.7v1.1H39.7z"/>
	</g>
	<path class="st1" d="M40.5,14.5v0.3l0.2,0v1.5h0.5v-1.8H40.5z M40.8,14.2h0.5v-0.4h-0.5V14.2z"/>
	<g>
		<defs>
			<rect id="SVGID_23_" width="47.4" height="40.8"/>
		</defs>
		<clipPath id="SVGID_24_">
			<use xlink:href="#SVGID_23_"  style="overflow:visible;"/>
		</clipPath>
		<path class="st13" d="M42.9,15.4c0-0.4-0.1-0.6-0.4-0.6c-0.2,0-0.4,0.2-0.4,0.6c0,0.4,0.1,0.6,0.4,0.6
			C42.8,15.9,42.9,15.8,42.9,15.4 M43.4,15.4c0,0.6-0.3,0.9-0.9,0.9c-0.6,0-0.9-0.3-0.9-0.9c0-0.5,0.3-0.9,0.9-0.9
			C43.1,14.4,43.4,14.8,43.4,15.4"/>
	</g>
</g>
</svg>
