<?xml version="1.0" encoding="utf-8"?>
<!-- Generator: Adobe Illustrator 22.1.0, SVG Export Plug-In . SVG Version: 6.00 Build 0)  -->
<svg version="1.1" id="Layer_1" xmlns="http://www.w3.org/2000/svg" xmlns:xlink="http://www.w3.org/1999/xlink" x="0px" y="0px"
	 width="82.6px" height="17.1px" viewBox="0 0 82.6 17.1" style="enable-background:new 0 0 82.6 17.1;" xml:space="preserve">
<style type="text/css">
	.st0{fill:#848484;}
	.st1{fill:#938774;}
</style>
<g>
	<circle class="st0" cx="41.8" cy="13.5" r="4"/>
</g>
<g>
	<path class="st1" d="M10.7,4.8L7.3,4.1L7,5.4l3.1,0.7L9.9,7.2L6.8,6.5L6.4,8.2l3.5,0.8l-0.2,1.1L4.9,9l1.4-6.3l4.6,1L10.7,4.8z"/>
	<path class="st1" d="M12.6,4.8c0.6-0.4,1.3-0.5,2.1-0.4c1.1,0.2,1.7,0.7,2.1,1.6c0.2,0.5,0.2,0.9,0.2,1.3l-1.3-0.3
		c0-0.3-0.1-0.6-0.2-0.8c-0.2-0.3-0.5-0.5-1-0.6c-0.5-0.1-0.9,0-1.2,0.3c-0.4,0.3-0.6,0.8-0.8,1.6s-0.1,1.3,0.1,1.7
		c0.2,0.4,0.5,0.7,1,0.8c0.5,0.1,0.8,0,1.1-0.2C14.8,9.5,15,9.3,15.2,9l1.3,0.3c-0.3,0.7-0.7,1.2-1.2,1.5c-0.6,0.3-1.2,0.4-1.9,0.3
		c-0.9-0.2-1.5-0.6-1.9-1.3C11,9,10.9,8.1,11.1,7.1C11.4,6,11.8,5.2,12.6,4.8z"/>
	<path class="st1" d="M19.6,9.7l0.9,0.2l0.6-1.2l-0.9-0.2l0.3-0.7L21.4,8l0.8-1.6l0.9,0.2l-0.8,1.6L23,8.3l0.8-1.6l0.9,0.2l-0.8,1.6
		l0.9,0.2l-0.3,0.7l-0.9-0.2l-0.6,1.2l0.9,0.2l-0.3,0.7l-0.9-0.2l-0.8,1.6l-0.9-0.2l0.8-1.6l-0.7-0.2l-0.8,1.6l-0.9-0.2l0.8-1.6
		l-0.9-0.2L19.6,9.7z M22,10.2L22.6,9l-0.7-0.2L21.3,10L22,10.2z"/>
	<path class="st1" d="M29,8.6c0.2,0.6,0.2,1.5,0,2.5c-0.2,1-0.6,1.8-1,2.3c-0.4,0.5-1.1,0.6-1.8,0.5c-0.8-0.2-1.3-0.6-1.5-1.2
		c-0.2-0.6-0.2-1.5,0-2.5c0.2-1,0.6-1.8,1-2.3c0.4-0.5,1.1-0.6,1.9-0.5C28.3,7.6,28.8,8,29,8.6z M25.7,12.1c0,0.4,0.2,0.6,0.6,0.7
		c0.4,0.1,0.6-0.1,0.8-0.4c0.2-0.4,0.4-0.9,0.5-1.6c0.2-0.8,0.2-1.3,0.2-1.7c0-0.4-0.2-0.6-0.6-0.7c-0.4-0.1-0.6,0-0.8,0.4
		c-0.2,0.3-0.4,0.9-0.5,1.6C25.8,11.1,25.7,11.7,25.7,12.1z"/>
	<path class="st1" d="M30.2,10l0.2-0.8c0.4,0.1,0.7,0.1,0.8,0.1c0.3,0,0.5-0.1,0.7-0.2C32,9,32.1,8.9,32.2,8.7
		c0.1-0.1,0.1-0.2,0.1-0.2l1,0.2L32,14.9l-1.3-0.3l0.9-4.3L30.2,10z"/>
</g>
</svg>
