<?xml version="1.0" encoding="utf-8"?>
<!-- Generator: Adobe Illustrator 22.1.0, SVG Export Plug-In . SVG Version: 6.00 Build 0)  -->
<svg version="1.1" id="Layer_1" xmlns="http://www.w3.org/2000/svg" xmlns:xlink="http://www.w3.org/1999/xlink" x="0px" y="0px"
	 width="82.6px" height="17.1px" viewBox="0 0 82.6 17.1" style="enable-background:new 0 0 82.6 17.1;" xml:space="preserve">
<style type="text/css">
	.st0{fill:#848484;}
	.st1{fill:#82786A;}
</style>
<g>
	<circle class="st0" cx="41.8" cy="13.5" r="4"/>
</g>
<g>
	<path class="st1" d="M10.3,7.4l0.9,0.2l0.6-1.2l-0.9-0.2l0.3-0.7l0.9,0.2l0.8-1.6l0.9,0.2l-0.8,1.6L13.6,6l0.8-1.6l0.9,0.2
		l-0.8,1.6l0.9,0.2L15,7.1l-0.9-0.2l-0.6,1.2l0.9,0.2l-0.3,0.7l-0.9-0.2l-0.8,1.6l-0.9-0.2l0.8-1.6l-0.7-0.2L10.8,10L9.9,9.8
		l0.8-1.6L9.9,8L10.3,7.4z M12.7,7.9l0.6-1.2l-0.7-0.2L12,7.7L12.7,7.9z"/>
	<path class="st1" d="M19.7,6.3c0.2,0.6,0.2,1.5,0,2.5s-0.6,1.8-1,2.3c-0.4,0.5-1.1,0.6-1.8,0.5c-0.8-0.2-1.3-0.6-1.5-1.2
		c-0.2-0.6-0.2-1.5,0-2.5s0.6-1.8,1-2.3c0.4-0.5,1.1-0.6,1.9-0.5S19.5,5.7,19.7,6.3z M16.4,9.8c0,0.4,0.2,0.6,0.6,0.7
		c0.4,0.1,0.6-0.1,0.8-0.4s0.4-0.9,0.5-1.6c0.2-0.8,0.2-1.3,0.2-1.7c0-0.4-0.2-0.6-0.6-0.7c-0.4-0.1-0.6,0-0.8,0.4
		c-0.2,0.3-0.4,0.9-0.5,1.6C16.5,8.8,16.4,9.4,16.4,9.8z"/>
	<path class="st1" d="M20.9,7.7L21,6.9C21.4,7,21.7,7,21.9,7c0.3,0,0.5-0.1,0.7-0.2c0.1-0.1,0.2-0.2,0.3-0.4C22.9,6.3,23,6.2,23,6.2
		l1,0.2l-1.4,6.2l-1.3-0.3L22.3,8L20.9,7.7z"/>
	<path class="st1" d="M25.1,10l2.4,0.5l-0.3,1.2l-2.4-0.5L25.1,10z"/>
	<path class="st1" d="M31,7.8l1.5,0.3l0.9,6.8l-1.4-0.3l-0.1-1.4l-2.3-0.5l-0.7,1.2l-1.4-0.3L31,7.8z M30,11.7l1.6,0.4l-0.3-2.7
		L30,11.7z"/>
</g>
</svg>
