<?xml version="1.0" encoding="utf-8"?>
<!-- Generator: Adobe Illustrator 22.1.0, SVG Export Plug-In . SVG Version: 6.00 Build 0)  -->
<svg version="1.1" id="Layer_1" xmlns="http://www.w3.org/2000/svg" xmlns:xlink="http://www.w3.org/1999/xlink" x="0px" y="0px"
	 width="82.6px" height="17.1px" viewBox="0 0 82.6 17.1" style="enable-background:new 0 0 82.6 17.1;" xml:space="preserve">
<style type="text/css">
	.st0{fill:#848484;}
	.st1{fill:#7C7263;}
</style>
<g>
	<circle class="st0" cx="41.8" cy="13.5" r="4"/>
</g>
<g>
	<path class="st1" d="M10.3,8l0.9,0.2L11.8,7l-0.9-0.2l0.3-0.7l0.9,0.2L13,4.7l0.9,0.2L13,6.5l0.7,0.2L14.5,5l0.9,0.2l-0.8,1.6
		L15.4,7l-0.3,0.7l-0.9-0.2l-0.6,1.2l0.9,0.2l-0.3,0.7l-0.9-0.2L12.4,11l-0.9-0.2l0.8-1.6L11.7,9l-0.8,1.6L10,10.4l0.8-1.6L10,8.6
		L10.3,8z M12.7,8.5l0.6-1.2l-0.7-0.2L12,8.3L12.7,8.5z"/>
	<path class="st1" d="M19.8,6.9c0.2,0.6,0.2,1.5,0,2.5s-0.6,1.8-1,2.3c-0.4,0.5-1.1,0.6-1.8,0.5s-1.3-0.6-1.5-1.2
		c-0.2-0.6-0.2-1.5,0-2.5s0.6-1.8,1-2.3c0.4-0.5,1.1-0.6,1.9-0.5C19.1,5.8,19.6,6.2,19.8,6.9z M16.5,10.4c0,0.4,0.2,0.6,0.6,0.7
		s0.6-0.1,0.8-0.4c0.2-0.4,0.4-0.9,0.5-1.6c0.2-0.8,0.2-1.3,0.2-1.7c0-0.4-0.2-0.6-0.6-0.7c-0.4-0.1-0.6,0-0.8,0.4s-0.4,0.9-0.5,1.6
		C16.5,9.4,16.5,10,16.5,10.4z"/>
	<path class="st1" d="M20.9,8.3l0.2-0.8c0.4,0.1,0.7,0.1,0.8,0.1c0.3,0,0.5-0.1,0.7-0.2c0.1-0.1,0.2-0.2,0.3-0.4
		C23,6.9,23,6.8,23,6.8l1,0.2l-1.4,6.2l-1.3-0.3l0.9-4.3L20.9,8.3z"/>
	<path class="st1" d="M25.1,10.6l2.4,0.5l-0.3,1.2l-2.4-0.5L25.1,10.6z"/>
	<path class="st1" d="M29.7,8.8c0.6-0.4,1.3-0.5,2.1-0.4c1.1,0.2,1.7,0.7,2.1,1.6c0.2,0.5,0.2,0.9,0.2,1.3L32.8,11
		c0-0.3-0.1-0.6-0.2-0.8c-0.2-0.3-0.5-0.5-1-0.6c-0.5-0.1-0.9,0-1.2,0.3c-0.4,0.3-0.6,0.8-0.8,1.6c-0.2,0.7-0.1,1.3,0.1,1.7
		c0.2,0.4,0.5,0.7,1,0.8c0.5,0.1,0.8,0,1.1-0.2c0.2-0.1,0.3-0.4,0.5-0.7l1.3,0.3c-0.3,0.7-0.7,1.2-1.2,1.5c-0.6,0.3-1.2,0.4-1.9,0.3
		c-0.9-0.2-1.5-0.6-1.9-1.3c-0.4-0.7-0.5-1.6-0.2-2.6C28.5,10.1,29,9.3,29.7,8.8z"/>
</g>
</svg>
