<?xml version="1.0" encoding="utf-8"?>
<!-- Generator: Adobe Illustrator 22.1.0, SVG Export Plug-In . SVG Version: 6.00 Build 0)  -->
<svg version="1.1" id="Layer_1" xmlns="http://www.w3.org/2000/svg" xmlns:xlink="http://www.w3.org/1999/xlink" x="0px" y="0px"
	 width="82.6px" height="17.1px" viewBox="0 0 82.6 17.1" style="enable-background:new 0 0 82.6 17.1;" xml:space="preserve">
<style type="text/css">
	.st0{fill:#848484;}
	.st1{fill:#7C7263;}
</style>
<g>
	<circle class="st0" cx="41.8" cy="13.5" r="4"/>
</g>
<g>
	<path class="st1" d="M10.3,8l0.9,0.2L11.8,7l-0.9-0.2l0.3-0.7l0.9,0.2L13,4.7l0.9,0.2L13,6.5l0.7,0.2L14.5,5l0.9,0.2l-0.8,1.6
		L15.4,7L15,7.7l-0.9-0.2l-0.6,1.2l0.9,0.2l-0.3,0.7l-0.9-0.2L12.4,11l-0.9-0.2l0.8-1.6L11.6,9l-0.8,1.6L10,10.4l0.8-1.6L9.9,8.6
		L10.3,8z M12.7,8.5l0.6-1.2l-0.7-0.2L12,8.3L12.7,8.5z"/>
	<path class="st1" d="M19.7,6.9c0.2,0.6,0.2,1.5,0,2.5s-0.6,1.8-1,2.3c-0.4,0.5-1.1,0.6-1.8,0.5c-0.8-0.2-1.3-0.6-1.5-1.2
		c-0.2-0.6-0.2-1.5,0-2.5s0.6-1.8,1-2.3c0.4-0.5,1.1-0.6,1.9-0.5C19,5.8,19.5,6.2,19.7,6.9z M16.5,10.4c0,0.4,0.2,0.6,0.6,0.7
		c0.4,0.1,0.6-0.1,0.8-0.4s0.4-0.9,0.5-1.6c0.2-0.8,0.2-1.3,0.2-1.7c0-0.4-0.2-0.6-0.6-0.7s-0.6,0-0.8,0.4c-0.2,0.3-0.4,0.9-0.5,1.6
		C16.5,9.4,16.4,10,16.5,10.4z"/>
	<path class="st1" d="M20.9,8.3l0.2-0.8c0.4,0.1,0.7,0.1,0.8,0.1c0.3,0,0.5-0.1,0.7-0.2c0.1-0.1,0.2-0.2,0.3-0.4
		C23,6.9,23,6.8,23,6.8L24,7l-1.4,6.2l-1.3-0.3l0.9-4.3L20.9,8.3z"/>
	<path class="st1" d="M25.1,10.6l2.4,0.5l-0.3,1.2l-2.4-0.5L25.1,10.6z"/>
	<path class="st1" d="M33.6,10.1l-3.3-0.7L30,10.7l3.1,0.7l-0.2,1.1l-3.1-0.7l-0.4,1.6l3.5,0.8l-0.2,1.1l-4.8-1L29.2,8l4.6,1
		L33.6,10.1z"/>
</g>
</svg>
