<?xml version="1.0" encoding="utf-8"?>
<!-- Generator: Adobe Illustrator 22.1.0, SVG Export Plug-In . SVG Version: 6.00 Build 0)  -->
<svg version="1.1" id="Layer_1" xmlns="http://www.w3.org/2000/svg" xmlns:xlink="http://www.w3.org/1999/xlink" x="0px" y="0px"
	 width="82.6px" height="17.1px" viewBox="0 0 82.6 17.1" style="enable-background:new 0 0 82.6 17.1;" xml:space="preserve">
<style type="text/css">
	.st0{fill:#848484;}
	.st1{fill:#938774;}
</style>
<g>
	<circle class="st0" cx="41.8" cy="13.5" r="4"/>
</g>
<g>
	<path class="st1" d="M7.5,2.7l1.9,0.4L8.1,9.4L6.9,9.2l0.9-4.3c0-0.1,0.1-0.3,0.1-0.5C7.9,4.1,8,4,8,3.8L5.7,8.9L4.4,8.6L4.3,3.1
		c0,0.1-0.1,0.3-0.1,0.5c0,0.2-0.1,0.4-0.1,0.5L3.2,8.4L2,8.1l1.3-6.3l1.9,0.4l0.1,5.2L7.5,2.7z"/>
	<path class="st1" d="M11.1,4.1c0.6-0.4,1.3-0.5,2.1-0.4C14.3,4,15,4.5,15.3,5.3c0.2,0.4,0.2,0.9,0.2,1.3l-1.3-0.3
		c0-0.3-0.1-0.6-0.2-0.8c-0.2-0.3-0.5-0.5-1-0.6c-0.5-0.1-0.9,0-1.2,0.3c-0.4,0.3-0.6,0.9-0.8,1.6c-0.1,0.7-0.1,1.3,0.1,1.7
		c0.2,0.4,0.5,0.7,1,0.8c0.5,0.1,0.8,0,1.1-0.2c0.2-0.1,0.3-0.4,0.5-0.7l1.3,0.3c-0.3,0.7-0.7,1.2-1.2,1.5c-0.6,0.3-1.2,0.4-1.9,0.3
		C11,10.2,10.4,9.8,10,9.1C9.6,8.4,9.5,7.5,9.7,6.5C9.9,5.4,10.4,4.6,11.1,4.1z"/>
	<path class="st1" d="M18.2,9L19,9.2L19.7,8l-0.9-0.2l0.3-0.7L20,7.3l0.8-1.6l0.9,0.2l-0.8,1.6l0.7,0.1L22.4,6l0.9,0.2l-0.8,1.6
		L23.3,8l-0.3,0.7l-0.9-0.2l-0.6,1.2l0.9,0.2L22,10.5l-0.9-0.2L20.3,12l-0.9-0.2l0.8-1.6L19.6,10l-0.8,1.6l-0.9-0.2l0.8-1.6
		l-0.9-0.2L18.2,9z M20.6,9.5l0.6-1.2l-0.7-0.1l-0.6,1.2L20.6,9.5z"/>
	<path class="st1" d="M23.2,11.3c0.3-0.4,0.8-0.7,1.5-1.1c0.6-0.3,1.1-0.5,1.3-0.6c0.3-0.2,0.5-0.5,0.6-0.8c0.1-0.3,0-0.5-0.1-0.7
		c-0.1-0.2-0.3-0.3-0.6-0.4c-0.4-0.1-0.7,0-0.8,0.3c-0.1,0.1-0.2,0.4-0.3,0.7l-1.2-0.2c0.1-0.5,0.3-0.9,0.6-1.2
		c0.5-0.6,1.1-0.7,1.9-0.6c0.7,0.1,1.1,0.4,1.5,0.9c0.3,0.4,0.4,1,0.3,1.6c-0.1,0.5-0.3,0.8-0.7,1.1c-0.2,0.2-0.6,0.4-1.1,0.6
		l-0.6,0.2c-0.4,0.2-0.6,0.3-0.7,0.3c-0.1,0.1-0.3,0.2-0.4,0.3l2.7,0.6l-0.2,1.1l-4.3-0.9C22.8,12,22.9,11.6,23.2,11.3z"/>
	<path class="st1" d="M29.1,11.8c-0.1,0.2-0.1,0.5,0,0.6c0.1,0.3,0.3,0.5,0.7,0.6c0.2,0.1,0.5,0,0.7-0.1c0.2-0.1,0.4-0.3,0.4-0.7
		c0.1-0.4,0-0.7-0.3-0.9c-0.2-0.1-0.5-0.2-0.9-0.3l0.2-0.9c0.4,0.1,0.7,0.1,0.9,0.1c0.3-0.1,0.5-0.3,0.6-0.6c0-0.2,0-0.4-0.1-0.6
		c-0.1-0.2-0.3-0.3-0.5-0.3c-0.3-0.1-0.5,0-0.7,0.1c-0.2,0.2-0.3,0.4-0.3,0.7l-1.1-0.2c0.1-0.3,0.2-0.6,0.3-0.8
		C29,8.2,29.2,8,29.5,7.8c0.2-0.1,0.4-0.2,0.6-0.2c0.2,0,0.5,0,0.8,0.1c0.6,0.1,1,0.4,1.3,0.8c0.3,0.4,0.4,0.8,0.3,1.4
		c-0.1,0.4-0.3,0.7-0.5,0.9c-0.2,0.1-0.3,0.2-0.5,0.2c0.1,0,0.3,0.2,0.4,0.4c0.3,0.4,0.3,0.8,0.2,1.3c-0.1,0.5-0.4,1-0.8,1.3
		c-0.4,0.3-1,0.4-1.7,0.3c-0.9-0.2-1.4-0.6-1.7-1.2c-0.1-0.3-0.1-0.8,0-1.3L29.1,11.8z"/>
</g>
</svg>
